<svg width="124" height="124" viewBox="0 0 124 124" fill="none" xmlns="http://www.w3.org/2000/svg">
<path fill-rule="evenodd" clip-rule="evenodd" d="M98.6886 12.0653C100.208 11.1264 101.962 10.6358 103.748 10.65C106.306 10.65 108.759 11.6662 110.568 13.475C112.376 15.2838 113.392 17.7371 113.392 20.2952C113.402 22.0406 112.93 23.7548 112.027 25.2487H112.069C119.877 35.9048 124.059 48.7858 123.999 61.9965C123.999 78.4408 117.467 94.2117 105.84 105.84C94.2129 117.468 78.443 124 61.9997 124C53.8578 124 45.7956 122.396 38.2734 119.28C30.7513 116.164 23.9165 111.597 18.1593 105.84C6.53209 94.2117 0 78.4408 0 61.9965C-5.30361e-08 53.8544 1.60371 45.792 4.71958 38.2698C7.83544 30.7476 12.4024 23.9129 18.1597 18.1559C23.917 12.3989 30.7519 7.83239 38.274 4.7172C45.7961 1.602 53.8581 -0.000901833 61.9997 2.75224e-05C75.2003 -0.0124286 88.058 4.20345 98.6886 12.0299" fill="white"/>
<path fill-rule="evenodd" clip-rule="evenodd" d="M107.045 29.2824C105.965 29.6732 104.826 29.8789 103.677 29.891C102.419 29.8919 101.174 29.6449 100.011 29.1642C98.8489 28.6834 97.7927 27.9784 96.9029 27.0892C96.0131 26.2 95.3073 25.1443 94.8257 23.9822C94.3442 22.8201 94.0963 21.5745 94.0963 20.3166C94.104 19.1587 94.3247 18.0121 94.7473 16.9341C85.2324 10.0139 73.7646 6.29684 61.9997 6.31944C47.2308 6.32131 33.0671 12.188 22.6219 22.6298C12.1768 33.0716 6.30511 47.2339 6.29761 62.0037C6.29948 76.7784 12.1697 90.9473 22.6169 101.394C33.0642 111.841 47.233 117.709 62.0068 117.709C76.7732 117.698 90.931 111.824 101.369 101.379C111.807 90.9335 117.672 76.771 117.673 62.0037C117.687 50.2482 113.971 38.7914 107.059 29.2824" fill="#ED1C24"/>
<path fill-rule="evenodd" clip-rule="evenodd" d="M107.045 29.2824C105.965 29.6732 104.826 29.8789 103.677 29.891C102.419 29.8919 101.174 29.6449 100.011 29.1642C98.8489 28.6834 97.7927 27.9784 96.9029 27.0892C96.0131 26.2 95.3073 25.1443 94.8257 23.9822C94.3442 22.8201 94.0963 21.5745 94.0963 20.3166C94.104 19.1587 94.3247 18.0121 94.7473 16.9341C85.2324 10.0139 73.7646 6.29684 61.9997 6.31944C47.2308 6.32131 33.0671 12.188 22.6219 22.6298C12.1768 33.0716 6.30511 47.2339 6.29761 62.0037C6.29948 76.7784 12.1697 90.9473 22.6169 101.394C33.0642 111.841 47.233 117.709 62.0068 117.709C76.7732 117.698 90.931 111.824 101.369 101.379C111.807 90.9335 117.672 76.771 117.673 62.0037C117.687 50.2482 113.971 38.7914 107.059 29.2824" fill="#ED1C24"/>
<path d="M98.4763 20.1677C98.4782 18.7707 99.0344 17.4316 100.023 16.4444C101.011 15.4573 102.351 14.9028 103.748 14.9028C105.144 14.9028 106.483 15.4575 107.47 16.4449C108.458 17.4322 109.012 18.7714 109.012 20.1677C109.012 21.564 108.458 22.9031 107.47 23.8905C106.483 24.8778 105.144 25.4325 103.748 25.4325C102.351 25.4325 101.011 24.8781 100.023 23.8909C99.0344 22.9038 98.4782 21.5647 98.4763 20.1677" fill="#ED1C24"/>
<path fill-rule="evenodd" clip-rule="evenodd" d="M31.665 93.2387C31.9915 92.9058 32.3845 92.6453 32.8184 92.4745C33.2403 92.2998 33.692 92.2085 34.1486 92.2056C34.6031 92.2072 35.0528 92.2986 35.4718 92.4745C35.9131 92.6431 36.3135 92.9036 36.6465 93.2387L37.1347 93.727L36.1582 94.7106L35.6558 94.2223C35.4538 94.0207 35.2131 93.8618 34.9482 93.7553C34.6947 93.6509 34.4229 93.5979 34.1486 93.5996C33.8768 93.5992 33.6076 93.6521 33.3561 93.7553C33.0904 93.8602 32.8495 94.0193 32.6485 94.2223C32.4443 94.4238 32.283 94.6645 32.1744 94.93C32.0746 95.1849 32.0219 95.4559 32.0188 95.7296C32.0219 96.0034 32.0746 96.2743 32.1744 96.5293C32.283 96.7947 32.4443 97.0355 32.6485 97.2369C32.8414 97.44 33.0743 97.6008 33.3325 97.7092C33.5907 97.8176 33.8686 97.8712 34.1486 97.8667C34.4299 97.8697 34.7089 97.8168 34.9695 97.711C35.2372 97.6068 35.4788 97.4449 35.677 97.2369L36.1794 96.7557L37.1559 97.7464L36.6677 98.2276C36.3337 98.5667 35.934 98.8339 35.4931 99.0131C35.0721 99.1811 34.6231 99.2676 34.1699 99.2678C33.7145 99.2663 33.2633 99.1799 32.8396 99.0131C32.406 98.8318 32.0137 98.5646 31.6862 98.2276C31.3471 97.902 31.0838 97.5058 30.9149 97.0671C30.7469 96.6486 30.6604 96.2018 30.6602 95.7508C30.6586 95.2951 30.7451 94.8434 30.9149 94.4205C31.0856 93.9827 31.3487 93.5869 31.6862 93.2599" fill="white"/>
<path fill-rule="evenodd" clip-rule="evenodd" d="M43.7154 96.7699L44.6989 97.7535L44.2178 98.2418C43.8882 98.5676 43.499 98.8271 43.0715 99.006C42.6429 99.1834 42.1837 99.2747 41.7199 99.2749C41.2586 99.2738 40.8018 99.1825 40.3755 99.006C39.9461 98.8305 39.5563 98.5706 39.2292 98.2418C38.8975 97.9115 38.6374 97.5164 38.465 97.0812C38.2976 96.6551 38.2113 96.2016 38.2103 95.7438C38.2114 95.2952 38.2979 94.8509 38.465 94.4347C38.6356 93.9965 38.8959 93.5988 39.2292 93.267C39.5617 92.9381 39.9561 92.6783 40.3897 92.5028C40.8116 92.3281 41.2633 92.2368 41.7199 92.2339C42.1722 92.235 42.6196 92.3264 43.0361 92.5028C43.479 92.6722 43.8815 92.9326 44.2178 93.267L44.6989 93.7553L40.8001 97.6615C41.1869 97.856 41.6239 97.9276 42.0525 97.8667C42.499 97.7899 42.9099 97.5745 43.2271 97.2511L43.7154 96.7699ZM40.2198 94.2436C40.0181 94.4375 39.8582 94.6706 39.7499 94.9286C39.6416 95.1866 39.5872 95.464 39.5901 95.7438C39.5879 96.0659 39.6631 96.3838 39.8094 96.6708C39.9297 96.5434 40.1208 96.3594 40.3755 96.1118L41.1892 95.2909L42.0171 94.463C42.2931 94.2011 42.4983 93.9959 42.6469 93.8473C42.2552 93.6523 41.8128 93.5831 41.3803 93.6492C40.9385 93.7139 40.5305 93.9228 40.2198 94.2436" fill="white"/>
<path fill-rule="evenodd" clip-rule="evenodd" d="M45.9584 95.7297C45.9552 95.2633 46.0467 94.801 46.2273 94.371C46.405 93.9546 46.6594 93.5753 46.9774 93.2529C47.3005 92.9294 47.6856 92.6743 48.1095 92.5028C48.538 92.3156 49.0006 92.2192 49.4681 92.2198C49.9382 92.2172 50.4035 92.3136 50.8338 92.5028C51.2565 92.6726 51.6395 92.928 51.9589 93.2529C52.2835 93.5712 52.541 93.9514 52.716 94.371C52.9022 94.7995 52.9962 95.2624 52.992 95.7297V99.2679H51.5768V95.7297C51.5761 95.4489 51.5158 95.1716 51.3999 94.9159C51.2987 94.662 51.1443 94.4327 50.947 94.2436C50.7504 94.0387 50.5078 93.8834 50.2394 93.7907C49.9801 93.6706 49.6972 93.6101 49.4115 93.6138C49.126 93.6118 48.8434 93.6722 48.5836 93.7907C48.3176 93.8884 48.0761 94.0429 47.876 94.2436C47.6833 94.4381 47.5275 94.6658 47.4161 94.9159C47.3159 95.1754 47.2655 95.4515 47.2675 95.7297V99.2679H45.8523L45.9584 95.7297Z" fill="white"/>
<path fill-rule="evenodd" clip-rule="evenodd" d="M55.2917 93.2387C55.6182 92.9058 56.0112 92.6453 56.445 92.4745C56.8695 92.2999 57.3235 92.2087 57.7824 92.2056C58.2345 92.208 58.6817 92.2994 59.0985 92.4745C59.5398 92.6431 59.9402 92.9036 60.2731 93.2387L60.7614 93.727L59.7849 94.7106L59.2825 94.2223C59.0804 94.0207 58.8398 93.8618 58.5749 93.7553C58.3209 93.6523 58.0494 93.5994 57.7753 93.5996C57.5012 93.5994 57.2297 93.6523 56.9757 93.7553C56.7109 93.8618 56.4702 94.0207 56.2681 94.2223C56.0609 94.4212 55.8991 94.6626 55.794 94.93C55.691 95.184 55.6382 95.4555 55.6384 95.7296C55.6382 96.0037 55.691 96.2753 55.794 96.5293C55.8999 96.7962 56.0615 97.0375 56.2681 97.2369C56.4602 97.441 56.6929 97.6025 56.9514 97.711C57.2098 97.8195 57.4881 97.8725 57.7682 97.8667C58.0471 97.8688 58.3236 97.8159 58.582 97.711C58.8517 97.6105 59.094 97.4481 59.2896 97.2369L59.792 96.7557L60.7685 97.7464L60.2802 98.2276C59.9462 98.5667 59.5465 98.8339 59.1056 99.0131C58.6871 99.1811 58.2404 99.2676 57.7895 99.2678C57.3318 99.2662 56.8784 99.1798 56.4521 99.0131C56.0186 98.8318 55.6262 98.5646 55.2987 98.2276C54.9621 97.9 54.6991 97.5043 54.5274 97.0671C54.3645 96.6473 54.2805 96.2011 54.2798 95.7508C54.2799 95.2959 54.3638 94.8449 54.5274 94.4205C54.7008 93.9841 54.9636 93.5888 55.2987 93.2599" fill="white"/>
<path fill-rule="evenodd" clip-rule="evenodd" d="M61.8298 95.7438C61.8244 95.2779 61.9134 94.8157 62.0916 94.3852C62.2719 93.9701 62.526 93.5913 62.8417 93.2671C63.1671 92.9463 63.5516 92.6916 63.9738 92.517C64.4048 92.3298 64.8697 92.2334 65.3395 92.2339C65.8073 92.2313 66.2703 92.3277 66.6981 92.517C67.1204 92.6916 67.5048 92.9463 67.8302 93.2671C68.155 93.5838 68.4104 93.9646 68.5803 94.3852C68.7689 94.8132 68.8654 95.2761 68.8633 95.7438C68.8645 96.2138 68.7681 96.6788 68.5803 97.1096C68.4089 97.5336 68.1538 97.9186 67.8302 98.2418C67.5061 98.5677 67.1215 98.8273 66.6981 99.0061C66.2683 99.1873 65.806 99.2788 65.3395 99.275C64.871 99.2766 64.4068 99.1852 63.9738 99.0061C63.5504 98.8273 63.1659 98.5677 62.8417 98.2418C62.5274 97.9112 62.2735 97.528 62.0916 97.1096C61.9149 96.6761 61.8259 96.2119 61.8298 95.7438V95.7438ZM63.245 95.7438C63.242 96.0297 63.2949 96.3133 63.4007 96.5789C63.5063 96.8408 63.6599 97.0808 63.8536 97.2865C64.0608 97.4798 64.3003 97.6355 64.5611 97.7465C64.8276 97.849 65.1106 97.9017 65.3961 97.9021C65.6792 97.901 65.9598 97.8483 66.224 97.7465C66.4876 97.6407 66.728 97.4845 66.9316 97.2865C67.1323 97.085 67.2889 96.8441 67.3915 96.5789C67.5053 96.3153 67.5632 96.0309 67.5614 95.7438C67.5631 95.4636 67.5053 95.1862 67.3915 94.93C67.2922 94.6632 67.1352 94.4215 66.9316 94.2224C66.7335 94.0193 66.4914 93.8643 66.224 93.7695C65.9627 93.6565 65.6808 93.5987 65.3961 93.5997C65.109 93.5979 64.8247 93.6557 64.5611 93.7695C64.2964 93.8697 64.0554 94.0239 63.8536 94.2224C63.657 94.4258 63.503 94.6664 63.4007 94.93C63.2948 95.1881 63.2418 95.4649 63.245 95.7438Z" fill="white"/>
<path fill-rule="evenodd" clip-rule="evenodd" d="M76.1799 92.2056V93.6208H71.9343C71.8412 93.6203 71.7489 93.6382 71.6627 93.6734C71.5765 93.7086 71.4981 93.7605 71.4319 93.8261C71.3021 93.9608 71.2308 94.1414 71.2338 94.3285C71.2304 94.4235 71.2463 94.5182 71.2803 94.6069C71.3143 94.6957 71.3659 94.7767 71.4319 94.8451C71.4981 94.9107 71.5765 94.9625 71.6627 94.9978C71.7489 95.033 71.8412 95.0508 71.9343 95.0503H74.7647C75.045 95.0485 75.3223 95.1064 75.5785 95.2201C75.8297 95.3198 76.0583 95.469 76.2507 95.6588C76.4516 95.8464 76.6086 96.0759 76.7106 96.3311C76.8252 96.587 76.8831 96.8646 76.8804 97.1449C76.8829 97.4298 76.8251 97.712 76.7106 97.9728C76.6062 98.2371 76.4498 98.4778 76.2507 98.6805C76.0591 98.8748 75.8305 99.0288 75.5785 99.1334C75.3206 99.2406 75.044 99.2959 74.7647 99.2961H70.5191V97.8809H74.7647C74.8597 97.8842 74.9544 97.8684 75.0432 97.8344C75.1319 97.8003 75.2129 97.7487 75.2813 97.6827C75.3482 97.6135 75.4003 97.5313 75.4343 97.4413C75.4684 97.3513 75.4837 97.2552 75.4794 97.1591C75.4824 96.972 75.4111 96.7913 75.2813 96.6566C75.2129 96.5906 75.1319 96.539 75.0432 96.505C74.9544 96.4709 74.8597 96.4551 74.7647 96.4585H71.9343C71.6504 96.4585 71.3692 96.4032 71.1064 96.2957C70.8604 96.1878 70.6371 96.0341 70.4484 95.8428C70.2587 95.6474 70.1053 95.4198 69.9955 95.1706C69.8903 94.9074 69.8374 94.6261 69.8399 94.3426C69.8355 94.0636 69.8885 93.7866 69.9955 93.5289C70.0978 93.2652 70.2518 93.0246 70.4484 92.8212C70.6383 92.635 70.8615 92.4862 71.1064 92.3825C71.3678 92.2694 71.6496 92.2116 71.9343 92.2126L76.1799 92.2056Z" fill="white"/>
<path fill-rule="evenodd" clip-rule="evenodd" d="M85.1522 92.2056V95.7438C85.1555 96.2139 85.059 96.6794 84.8692 97.1095C84.6985 97.52 84.4484 97.8928 84.1333 98.2063C83.8086 98.5301 83.4273 98.7915 83.0082 98.9777C82.5753 99.1569 82.1111 99.2483 81.6426 99.2466C81.174 99.2483 80.7098 99.1569 80.2769 98.9777C79.8567 98.7899 79.4733 98.5287 79.1447 98.2063C78.8305 97.8783 78.5766 97.4974 78.3947 97.0812C78.2179 96.6478 78.1289 96.1835 78.1329 95.7155V92.1772H79.5481V95.7155C79.5456 95.9989 79.5985 96.2802 79.7037 96.5434C79.8128 96.8036 79.966 97.043 80.1566 97.251C80.3639 97.4426 80.6035 97.5959 80.8642 97.7039C81.1297 97.8097 81.4134 97.8626 81.6992 97.8596C81.9826 97.862 82.2638 97.8092 82.5271 97.7039C82.7917 97.6036 83.0327 97.4493 83.2347 97.251C83.437 97.0509 83.5939 96.8096 83.6946 96.5434C83.8076 96.2821 83.8655 96.0002 83.8644 95.7155V92.1772L85.1522 92.2056Z" fill="white"/>
<path fill-rule="evenodd" clip-rule="evenodd" d="M93.1339 89.3821V95.7155C93.1337 96.1852 93.0373 96.65 92.8509 97.0812C92.6769 97.5034 92.4194 97.8861 92.0938 98.2064C91.7782 98.5345 91.4005 98.7966 90.9828 98.9777C90.5499 99.1569 90.0857 99.2483 89.6172 99.2466C89.1509 99.2485 88.689 99.157 88.2586 98.9777C87.8364 98.7934 87.4524 98.5318 87.1264 98.2064C86.8034 97.8826 86.5441 97.5009 86.3622 97.0812C86.1831 96.6483 86.0917 96.184 86.0933 95.7155C86.0901 95.2467 86.1816 94.7822 86.3622 94.3497C86.5425 93.9333 86.802 93.5559 87.1264 93.2387C87.4496 92.9152 87.8347 92.66 88.2586 92.4886C88.686 92.2981 89.1493 92.2016 89.6172 92.2056H91.74V89.375L93.1339 89.3821ZM89.596 97.8738C89.8772 97.8768 90.1562 97.8238 90.4168 97.7181C90.6804 97.6158 90.921 97.4618 91.1244 97.2652C91.3222 97.0628 91.4763 96.822 91.5772 96.5575C91.6903 96.2962 91.7481 96.0143 91.747 95.7296V93.6067H89.6243C89.3395 93.6056 89.0577 93.6635 88.7964 93.7765C88.5327 93.8788 88.2921 94.0328 88.0888 94.2294C87.8907 94.433 87.7344 94.6734 87.6288 94.9371C87.5264 95.1962 87.4736 95.4722 87.4732 95.7508C87.4743 96.034 87.527 96.3146 87.6288 96.5788C87.7378 96.8407 87.8936 97.0805 88.0888 97.2864C88.2944 97.4801 88.5344 97.6337 88.7964 97.7393C89.0596 97.8446 89.3408 97.8974 89.6243 97.895" fill="white"/>
<path d="M112.678 48.4595L100.458 80.5156L93.4241 80.4944L98.0305 70.0425L89.7304 48.4807H96.7427L101.271 62.3859H101.526L105.715 48.4666L112.678 48.4595Z" fill="#FFF200"/>
<path d="M88.6549 64.6857C88.6549 69.809 83.0436 71.7621 77.7579 71.7621C72.4721 71.7621 66.9882 69.7312 66.9882 64.6857H73.9298C73.9298 66.2637 76.1162 66.8581 77.7649 66.8511C79.4136 66.844 81.4869 66.4265 81.4869 64.898C81.4869 62.9803 78.8688 62.6972 74.7718 61.6357C70.5262 60.5177 67.4765 58.6495 67.4765 54.6372C67.4765 49.5422 72.4296 47.8013 77.7508 47.7872C83.0719 47.773 87.7987 49.528 87.8057 54.623H80.942C80.942 53.2077 79.2014 52.6558 77.7508 52.6628C76.3002 52.6699 74.5666 53.0167 74.5666 54.4178C74.5666 56.3426 77.5031 56.5832 80.8005 57.3899C85.0461 58.423 88.6478 60.1355 88.6549 64.6927" fill="#FFF200"/>
<path d="M63.0894 70.8701L56.5795 70.9126V68.3368H56.3318C55.2421 70.5234 53.0769 71.7193 49.7087 71.7334C43.9913 71.7334 39.0452 67.0559 39.0452 59.7035C39.0452 52.3511 43.5668 47.7656 49.3054 47.7656C52.4825 47.7656 55.1148 49.0748 56.2823 51.0349H56.537V48.5157H63.0823L63.0894 70.8701ZM56.4875 59.6682C56.4875 56.6678 54.8176 53.8584 50.9541 53.8655C47.0906 53.8726 45.8169 56.9933 45.8169 59.6894C45.8169 62.52 47.3383 65.5982 51.2584 65.6053C55.1785 65.6123 56.4875 62.3643 56.4875 59.6682" fill="#FFF200"/>
<path d="M35.4153 59.5195C35.4153 60.4041 35.295 61.8052 35.295 61.8052H19.1335C19.1542 62.4209 19.2975 63.0262 19.5549 63.5858C19.8124 64.1455 20.1787 64.6482 20.6326 65.0646C21.0866 65.481 21.6189 65.8027 22.1986 66.011C22.7783 66.2192 23.3937 66.3098 24.0088 66.2775C26.0113 66.2775 27.2991 65.5699 27.9289 64.1546H34.9412C34.3043 67.4805 31.4032 71.691 24.1291 71.6981C17.1239 71.6981 12.2485 66.1855 12.2415 59.5125C12.2344 52.8394 16.6569 47.7656 23.6409 47.7656C30.6248 47.7656 35.4082 52.8323 35.4153 59.5408V59.5195ZM28.4525 57.2976C28.3605 55.9955 27.5185 53.1932 23.747 53.1932C22.6008 53.1698 21.4879 53.5792 20.6302 54.3399C19.7725 55.1007 19.233 56.1567 19.1193 57.2976H28.4525Z" fill="#FFF200"/>
<path d="M81.119 80.7346C63.2946 78.3357 45.3782 78.1942 17.6192 80.1756L17.9235 78.8948C45.6613 76.4463 67.5331 75.1655 79.5269 75.5335C86.6029 75.7528 88.7257 76.2411 88.7257 78.7745C88.7257 81.4423 85.5839 81.3432 81.0978 80.7346" fill="#FFF200"/>
</svg>
