<svg width="100" height="100" viewBox="0 0 100 100" fill="none" xmlns="http://www.w3.org/2000/svg">
<path fill-rule="evenodd" clip-rule="evenodd" d="M79.2452 9.81276C80.4615 9.05218 81.869 8.65299 83.3035 8.66174C84.3211 8.66036 85.329 8.8596 86.2696 9.24807C87.2101 9.63654 88.0648 10.2066 88.7849 10.9257C89.5049 11.6448 90.0762 12.4987 90.4659 13.4387C90.8557 14.3788 91.0563 15.3864 91.0563 16.404C91.0619 17.8045 90.6819 19.1795 89.9577 20.3783L89.9927 20.4063C96.2616 28.9628 99.6181 39.3058 99.5682 49.9129C99.5686 56.4505 98.2814 62.9241 95.7799 68.9642C93.2784 75.0043 89.6116 80.4925 84.989 85.1154C80.3664 89.7383 74.8785 93.4054 68.8386 95.9074C62.7987 98.4093 56.3252 99.697 49.7876 99.697C36.5837 99.697 23.9206 94.452 14.5837 85.1158C5.2468 75.7796 0.000927825 63.1168 0 49.9129C0.000459417 43.3752 1.28861 36.9015 3.79092 30.8616C6.29323 24.8217 9.9607 19.3338 14.5839 14.7113C19.2071 10.0887 24.6955 6.42203 30.7358 3.92057C36.776 1.41911 43.2498 0.131865 49.7876 0.132324C60.3885 0.131451 70.7113 3.52377 79.2452 9.81276Z" fill="white"/>
<path fill-rule="evenodd" clip-rule="evenodd" d="M85.9591 23.6521C85.0909 23.9685 84.1752 24.1353 83.2512 24.1453C81.2099 24.1453 79.2522 23.3344 77.8088 21.891C76.3653 20.4476 75.5544 18.4899 75.5544 16.4486C75.5536 15.5201 75.7207 14.5992 76.0477 13.7302C68.4108 8.16543 59.2021 5.17345 49.7528 5.18681C37.8933 5.19052 26.5207 9.90356 18.1351 18.2898C9.74948 26.6761 5.03733 38.0491 5.03455 49.9085C5.03455 61.7713 9.74703 73.1482 18.1353 81.5365C26.5235 89.9248 37.9005 94.6372 49.7633 94.6372C61.6264 94.6372 73.0037 89.9249 81.3925 81.5367C89.7813 73.1486 94.4945 61.7716 94.4955 49.9085C94.4981 40.4739 91.5095 31.2813 85.9591 23.6521Z" fill="#4DB852"/>
<path d="M79.1543 16.3721C79.1543 15.2509 79.5995 14.1756 80.3919 13.3824C81.1844 12.5893 82.2593 12.1433 83.3805 12.1423C83.9363 12.1419 84.4867 12.2509 85.0002 12.4633C85.5138 12.6757 85.9805 12.9871 86.3737 13.38C86.7668 13.7728 87.0787 14.2392 87.2914 14.7526C87.5042 15.266 87.6137 15.8163 87.6137 16.3721C87.6137 16.9276 87.5042 17.4778 87.2914 17.991C87.0785 18.5042 86.7666 18.9704 86.3734 19.3629C85.9803 19.7555 85.5135 20.0666 85 20.2786C84.4864 20.4906 83.9361 20.5992 83.3805 20.5983C82.2597 20.5983 81.1847 20.153 80.3921 19.3605C79.5996 18.5679 79.1543 17.4929 79.1543 16.3721Z" fill="#4DB852"/>
<path fill-rule="evenodd" clip-rule="evenodd" d="M27.9919 75.7108C28.2517 75.4461 28.5639 75.2388 28.9085 75.102C29.2416 74.9652 29.598 74.8939 29.9581 74.8921C30.3185 74.8911 30.6754 74.9624 31.0077 75.102C31.3574 75.2368 31.6747 75.4443 31.9383 75.7108L32.3231 76.0956L31.5534 76.8758L31.1581 76.4909C30.9984 76.3299 30.8081 76.2026 30.5983 76.1166C30.3975 76.0381 30.1842 75.9966 29.9686 75.9941C29.7519 75.9965 29.5374 76.038 29.3354 76.1166C29.126 76.2035 28.9358 76.3307 28.7756 76.4909C28.6156 76.6453 28.4893 76.8311 28.4048 77.0367C28.3248 77.2371 28.2833 77.4507 28.2823 77.6664C28.283 77.8833 28.3246 78.0981 28.4048 78.2997C28.49 78.508 28.6161 78.6971 28.7756 78.8559C28.9295 79.0165 29.1149 79.1436 29.3202 79.229C29.5255 79.3145 29.7462 79.3567 29.9686 79.3527C30.1889 79.3524 30.4073 79.3109 30.6123 79.2303C30.8188 79.1457 31.0048 79.0181 31.1581 78.8559L31.5534 78.4711L32.3231 79.2548L31.9383 79.6396C31.6732 79.9069 31.3566 80.1176 31.0077 80.2588C30.6739 80.3921 30.3175 80.4598 29.9581 80.4583C29.599 80.4563 29.2433 80.3887 28.9085 80.2588C28.564 80.1124 28.2523 79.8982 27.9919 79.6291C27.7283 79.3692 27.5222 79.057 27.3867 78.7125C27.2539 78.3786 27.1862 78.0223 27.1873 77.6629C27.1872 77.3037 27.2548 76.9476 27.3867 76.6134C27.5213 76.2685 27.7276 75.956 27.9919 75.6968" fill="white"/>
<path fill-rule="evenodd" clip-rule="evenodd" d="M37.0948 78.4993L37.8785 79.2795L37.4936 79.6643C37.236 79.9257 36.9276 80.1317 36.5875 80.2696C36.2558 80.4115 35.8988 80.4853 35.538 80.4865C35.1701 80.4873 34.8059 80.4135 34.4674 80.2696C34.1288 80.1307 33.8218 79.9249 33.5648 79.6643C33.3001 79.4053 33.0938 79.0928 32.9596 78.7477C32.829 78.4131 32.7614 78.0573 32.7601 77.6982C32.7594 77.3388 32.8271 76.9826 32.9596 76.6486C33.0938 76.3035 33.3001 75.991 33.5648 75.732C33.8252 75.4682 34.1372 75.2609 34.4814 75.1232C34.8145 74.9864 35.1709 74.9151 35.531 74.9133C35.8913 74.9131 36.248 74.9844 36.5805 75.1232C36.9293 75.2581 37.2453 75.4656 37.5076 75.732L37.8925 76.1133L34.8068 79.2025C35.1125 79.3564 35.4581 79.4126 35.7969 79.3635C36.1506 79.306 36.4767 79.1368 36.7275 78.8807L37.0948 78.4993ZM34.3345 76.5017C34.1746 76.656 34.048 76.8415 33.9625 77.0467C33.8771 77.2519 33.8346 77.4724 33.8377 77.6947C33.8366 77.9485 33.8954 78.199 34.0091 78.4258L34.4534 77.978C34.6633 77.7751 34.8802 77.5617 35.1007 77.3343C35.3211 77.1069 35.552 76.8865 35.7584 76.6766C35.9648 76.4667 36.1362 76.3267 36.2517 76.1938C35.9412 76.039 35.5909 75.9828 35.2476 76.0329C34.8991 76.0817 34.5773 76.2469 34.3345 76.5017Z" fill="white"/>
<path fill-rule="evenodd" clip-rule="evenodd" d="M38.2284 77.6849C38.2261 77.3142 38.2975 76.9468 38.4384 76.6039C38.5814 76.2763 38.7829 75.9776 39.0331 75.7222C39.2898 75.4673 39.5941 75.2652 39.9287 75.1275C40.2688 74.9802 40.6357 74.9052 41.0063 74.9071C41.3781 74.9037 41.7465 74.9789 42.0873 75.1275C42.4202 75.2645 42.7224 75.4667 42.976 75.7222C43.2339 75.9719 43.4375 76.272 43.5742 76.6039C43.7232 76.9446 43.7984 77.313 43.7946 77.6849V80.4838H42.6926V77.6849C42.6943 77.4619 42.6478 77.2411 42.5561 77.0377C42.4808 76.8365 42.3612 76.6547 42.2063 76.5059C42.0578 76.3506 41.8759 76.231 41.6745 76.1561C41.4672 76.065 41.2431 76.0185 41.0168 76.0196C40.7904 76.0185 40.5663 76.065 40.359 76.1561C40.1598 76.2353 39.9789 76.3543 39.8273 76.5059C39.6791 76.6603 39.5605 76.8405 39.4774 77.0377C39.3936 77.243 39.3519 77.4631 39.355 77.6849V80.4838H38.2494L38.2284 77.6849Z" fill="white"/>
<path fill-rule="evenodd" clip-rule="evenodd" d="M44.9595 75.7107C45.218 75.4463 45.5291 75.2389 45.8726 75.102C46.2057 74.9652 46.5621 74.8939 46.9222 74.8921C47.2825 74.8918 47.6393 74.9632 47.9717 75.102C48.3209 75.236 48.6371 75.4437 48.8989 75.7107L49.2837 76.0956L48.5175 76.8758L48.1222 76.4909C47.9619 76.3306 47.7718 76.2034 47.5624 76.1166C47.3603 76.0383 47.1459 75.9968 46.9292 75.9941C46.7136 75.9962 46.5001 76.0377 46.2995 76.1166C46.0892 76.2018 45.8987 76.3292 45.7397 76.4909C45.5786 76.6443 45.4521 76.8304 45.3688 77.0367C45.2873 77.2366 45.2457 77.4505 45.2464 77.6664C45.2454 77.8835 45.287 78.0986 45.3688 78.2996C45.4528 78.5086 45.579 78.698 45.7397 78.8559C45.8927 79.0166 46.0775 79.1437 46.2823 79.2292C46.487 79.3147 46.7073 79.3568 46.9292 79.3527C47.1507 79.3523 47.3701 79.3108 47.5764 79.2303C47.7819 79.1439 47.9676 79.0165 48.1222 78.8559L48.5175 78.4711L49.2837 79.2547L48.8989 79.6396C48.6357 79.9075 48.3201 80.1183 47.9717 80.2588C47.6376 80.391 47.2815 80.4587 46.9222 80.4582C46.5631 80.4563 46.2074 80.3887 45.8726 80.2588C45.5293 80.1119 45.2188 79.8978 44.9595 79.6291C44.6949 79.3693 44.4876 79.0571 44.3508 78.7125C44.2187 78.3784 44.1522 78.0221 44.1549 77.6629C44.1536 77.3039 44.22 76.9478 44.3508 76.6134C44.4884 76.2733 44.6958 75.9658 44.9595 75.7107Z" fill="white"/>
<path fill-rule="evenodd" clip-rule="evenodd" d="M49.7037 77.6955C49.7014 77.3245 49.774 76.9568 49.9171 76.6144C50.0585 76.287 50.2603 75.9891 50.5118 75.7363C50.7673 75.4814 51.0704 75.2794 51.4039 75.1416C51.7433 74.9918 52.1106 74.9155 52.4815 74.9177C52.8527 74.9133 53.2203 74.9897 53.5591 75.1416C53.8941 75.2785 54.1985 75.4806 54.4547 75.7363C54.7107 75.9854 54.9131 76.2843 55.0494 76.6144C55.1993 76.955 55.2756 77.3234 55.2733 77.6955C55.2737 78.0663 55.1975 78.4331 55.0494 78.773C54.9125 79.107 54.7103 79.4103 54.4547 79.6652C54.1983 79.9232 53.8941 80.1288 53.5591 80.2704C53.2186 80.4155 52.8516 80.4882 52.4815 80.4838C52.1116 80.4861 51.7451 80.4135 51.4039 80.2704C51.0706 80.1275 50.7678 79.9221 50.5118 79.6652C50.2607 79.4066 50.0591 79.1043 49.9171 78.773C49.7755 78.4315 49.7029 78.0652 49.7037 77.6955ZM50.7952 77.6955C50.7937 77.9197 50.8365 78.1421 50.9211 78.3497C51.0052 78.5506 51.1236 78.7353 51.271 78.8955C51.4295 79.0451 51.6146 79.1637 51.8168 79.2453C52.0244 79.33 52.2468 79.3728 52.471 79.3713C52.6975 79.3725 52.9221 79.3297 53.1322 79.2453C53.3293 79.164 53.5087 79.0452 53.6605 78.8955C53.8136 78.7397 53.9327 78.5538 54.0104 78.3497C54.1017 78.1438 54.1482 77.9208 54.1468 77.6955C54.1493 77.4724 54.1027 77.2514 54.0104 77.0483C53.935 76.8481 53.8154 76.6675 53.6605 76.52C53.5135 76.3645 53.3328 76.2448 53.1322 76.1701C52.9244 76.0767 52.6989 76.029 52.471 76.0302C52.2453 76.0282 52.0219 76.076 51.8168 76.1701C51.6115 76.2456 51.4253 76.365 51.271 76.52C51.1216 76.6721 51.0029 76.8514 50.9211 77.0483C50.8355 77.2532 50.7927 77.4734 50.7952 77.6955Z" fill="white"/>
<path fill-rule="evenodd" clip-rule="evenodd" d="M60.6328 74.8934V75.9954H57.2742C57.2 75.9935 57.1261 76.0071 57.0574 76.0354C56.9887 76.0637 56.9267 76.1061 56.8754 76.1599C56.8225 76.211 56.7809 76.2725 56.7532 76.3406C56.7255 76.4086 56.7123 76.4817 56.7145 76.5552C56.7131 76.6301 56.7267 76.7046 56.7543 76.7742C56.7819 76.8439 56.8231 76.9074 56.8754 76.961C56.9269 77.0143 56.989 77.0562 57.0577 77.0839C57.1264 77.1117 57.2002 77.1246 57.2742 77.122H59.5028C59.7261 77.121 59.947 77.1688 60.15 77.2619C60.3488 77.3419 60.5297 77.4608 60.6818 77.6118C60.8346 77.7637 60.9538 77.9461 61.0317 78.147C61.1217 78.3485 61.1682 78.5666 61.1681 78.7873C61.1679 79.0146 61.1214 79.2396 61.0317 79.4485C60.9485 79.6457 60.83 79.8259 60.6818 79.9803C60.5274 80.1284 60.3472 80.247 60.15 80.3301C59.9448 80.4143 59.7246 80.4559 59.5028 80.4526H56.1547V79.347H59.4993C59.5746 79.3497 59.6497 79.3371 59.72 79.3101C59.7904 79.283 59.8545 79.242 59.9086 79.1896C59.962 79.1352 60.0037 79.0706 60.0314 78.9997C60.059 78.9287 60.072 78.8529 60.0696 78.7768C60.0715 78.7033 60.0582 78.6303 60.0305 78.5623C60.0028 78.4942 59.9613 78.4326 59.9086 78.3814C59.8547 78.3285 59.7906 78.287 59.7203 78.2594C59.65 78.2317 59.5748 78.2185 59.4993 78.2205H57.2707C57.0454 78.2213 56.8221 78.1785 56.613 78.0946C56.4191 78.0112 56.2423 77.8926 56.0917 77.7447C55.9472 77.5875 55.8291 77.4079 55.7419 77.2129C55.6607 77.0032 55.6191 76.7801 55.6194 76.5552C55.6181 76.3347 55.6597 76.1161 55.7419 75.9115C55.8256 75.7136 55.9441 75.5323 56.0917 75.3762C56.2391 75.2244 56.4167 75.1052 56.613 75.0264C56.8203 74.9353 57.0444 74.8888 57.2707 74.8899L60.6328 74.8934Z" fill="white"/>
<path fill-rule="evenodd" clip-rule="evenodd" d="M67.0808 74.8921V77.6664C67.0848 78.0383 67.0097 78.4068 66.8604 78.7475C66.7226 79.081 66.5205 79.3841 66.2656 79.6396C66.0106 79.8977 65.7075 80.1033 65.3735 80.2448C65.0329 80.3896 64.666 80.4623 64.296 80.4582C63.9249 80.4609 63.5571 80.3883 63.2149 80.2448C62.8804 80.1041 62.5772 79.8984 62.3228 79.6396C62.0725 79.3804 61.871 79.0782 61.728 78.7475C61.5872 78.4046 61.5158 78.0371 61.5181 77.6664V74.8921H62.6201V77.6664C62.6189 77.8914 62.6604 78.1147 62.7426 78.3241C62.8271 78.5248 62.9454 78.7094 63.0925 78.8699C63.2492 79.0168 63.4303 79.1352 63.6277 79.2198C63.8373 79.3016 64.0605 79.3432 64.2854 79.3422C64.5093 79.3429 64.7312 79.3013 64.9397 79.2198C65.1383 79.1394 65.319 79.0205 65.4715 78.8699C65.6264 78.7157 65.7458 78.5294 65.8213 78.3241C65.9131 78.1171 65.9596 77.8929 65.9578 77.6664V74.8921H67.0808Z" fill="white"/>
<path fill-rule="evenodd" clip-rule="evenodd" d="M72.9651 72.6638V77.6667C72.9667 78.0391 72.8892 78.4076 72.7377 78.7478C72.6025 79.0827 72.4001 79.3863 72.1429 79.6399C71.8947 79.8995 71.5958 80.1055 71.2648 80.2451C70.9238 80.3886 70.5572 80.4612 70.1872 80.4585C69.8162 80.4612 69.4484 80.3886 69.1062 80.2451C68.7729 80.1023 68.47 79.8968 68.2141 79.6399C67.9594 79.3821 67.7543 79.0797 67.6088 78.7478C67.4668 78.4051 67.3942 78.0376 67.3954 77.6667C67.3935 77.298 67.466 76.9326 67.6088 76.5927C67.752 76.2626 67.9575 75.9633 68.2141 75.711C68.4695 75.4562 68.7727 75.2541 69.1062 75.1163C69.4467 74.9662 69.8151 74.8899 70.1872 74.8924H71.8631V72.6638H72.9651ZM70.1872 79.353C70.4077 79.3543 70.6264 79.3127 70.831 79.2306C71.0289 79.1489 71.2094 79.0302 71.3627 78.8807C71.5177 78.7264 71.6371 78.5402 71.7126 78.3349C71.8054 78.1281 71.8532 77.9039 71.8525 77.6772V76.0049H70.1768C69.9504 76.0038 69.7263 76.0503 69.519 76.1414C69.315 76.2192 69.1292 76.3383 68.9733 76.4912C68.8234 76.6428 68.7045 76.8223 68.6234 77.0195C68.536 77.2227 68.4919 77.442 68.494 77.6632C68.4916 77.889 68.5357 78.1129 68.6234 78.3209C68.705 78.5231 68.8237 78.7082 68.9733 78.8667C69.1335 79.0141 69.3182 79.1325 69.519 79.2166C69.7287 79.2981 69.9518 79.3396 70.1768 79.339" fill="white"/>
<path d="M82.5303 41.2936C83.6753 41.2877 84.8085 41.5262 85.8539 41.9933C86.8795 42.4474 87.8119 43.088 88.6038 43.8825C89.3994 44.6792 90.039 45.6178 90.4895 46.6498C90.9574 47.7123 91.1958 48.8615 91.1892 50.0224C91.1989 51.1803 90.9677 52.3276 90.5105 53.3915C90.0674 54.4128 89.44 55.3438 88.6597 56.1378C87.8734 56.9344 86.9394 57.5702 85.9099 58.0095C84.8306 58.469 83.6683 58.7013 82.4953 58.6918C81.337 58.6994 80.1885 58.4783 79.1158 58.041C78.0832 57.6267 77.1436 57.0106 76.3519 56.2288C75.5539 55.445 74.9179 54.5118 74.4802 53.4824C74.0187 52.3904 73.7877 51.2149 73.8015 50.0294C73.7905 48.8773 74.0168 47.7352 74.4662 46.6743C74.8932 45.6503 75.5213 44.7223 76.3134 43.9455C77.123 43.1553 78.072 42.5219 79.1122 42.0772C80.1975 41.6057 81.3617 41.3422 82.5443 41.3006L82.5303 41.2936ZM82.5093 44.8586C81.8246 44.8563 81.1464 44.992 80.5152 45.2574C79.897 45.5083 79.3355 45.8807 78.8639 46.3524C78.3928 46.8224 78.0143 47.3766 77.7478 47.9863C77.4677 48.6318 77.327 49.3292 77.335 50.0329C77.3327 50.7202 77.4733 51.4005 77.7478 52.0306C78.0146 52.6504 78.3929 53.216 78.8639 53.6994C79.3338 54.1828 79.8951 54.5681 80.5152 54.8329C81.1437 55.1089 81.8229 55.2507 82.5093 55.2492C83.1957 55.2503 83.8748 55.1085 84.5035 54.8329C85.1241 54.5673 85.6864 54.1821 86.1583 53.6994C86.6259 53.214 87.0027 52.6488 87.2708 52.0306C87.5437 51.3999 87.6842 50.72 87.6836 50.0329C87.6422 48.6952 87.1048 47.4208 86.1758 46.4574C85.2161 45.4771 83.9154 44.9045 82.5443 44.8586H82.5093Z" fill="white"/>
<path d="M34.7335 51.2441C34.7307 51.7683 34.6247 52.2869 34.4216 52.7701C34.2184 53.2534 33.9221 53.6919 33.5494 54.0606C33.1768 54.4293 32.7352 54.7211 32.2499 54.9191C31.7645 55.1172 31.2449 55.2177 30.7206 55.2149C30.1144 55.2125 29.5165 55.0735 28.9714 54.8082C28.4262 54.5429 27.9479 54.1582 27.572 53.6826C27.3546 53.4283 27.1766 53.1429 27.0437 52.8359C27.0013 52.732 26.965 52.6257 26.9352 52.5176L26.8897 52.3811L26.8653 52.2867C26.7703 51.9449 26.722 51.5918 26.7218 51.2371C26.7218 51.1776 26.7218 51.1216 26.7218 51.0657C26.7218 50.9222 26.7218 50.7788 26.7218 50.6458V43.1135C26.7192 42.8752 26.6678 42.6399 26.571 42.4221C26.4741 42.2043 26.3338 42.0086 26.1586 41.847C25.8313 41.501 25.3849 41.2922 24.9096 41.2628C24.424 41.2797 23.9628 41.4797 23.6186 41.8225C23.449 41.9838 23.3143 42.1782 23.2229 42.3936C23.1314 42.6091 23.0851 42.841 23.0868 43.075V50.9432C23.0842 52.1072 23.3487 53.2562 23.86 54.3018L23.9475 54.4627C24.0349 54.6412 24.1224 54.8126 24.2204 54.984C24.2728 55.0715 24.3253 55.159 24.3813 55.2464C24.4373 55.3339 24.5038 55.4318 24.5667 55.5263C25.0897 56.2726 25.7441 56.9175 26.4979 57.4295L26.5924 57.4925C27.151 57.8577 27.7557 58.1471 28.3906 58.3531C28.981 58.5221 29.5851 58.6392 30.1959 58.703H30.4688C30.5527 58.703 30.6402 58.703 30.7276 58.703H30.8221C31.0425 58.703 31.2594 58.703 31.4728 58.6715C31.6862 58.64 31.9521 58.612 32.1725 58.57H32.2075C32.7143 58.4679 33.2099 58.3167 33.6874 58.1187C34.4439 57.7977 35.1424 57.3545 35.755 56.8068C36.3216 56.2729 36.8188 55.6699 37.2349 55.012L37.2594 54.9735C37.3399 54.8441 37.4098 54.7041 37.4798 54.5642C37.5498 54.4243 37.5988 54.3578 37.6512 54.2458C38.1369 53.2066 38.3866 52.0728 38.3824 50.9257V43.075C38.3848 42.8412 38.3392 42.6094 38.2483 42.3939C38.1574 42.1785 38.0233 41.984 37.8541 41.8225C37.5105 41.4784 37.0492 41.2771 36.5632 41.2593C36.0824 41.2861 35.6303 41.4965 35.3002 41.847C35.1258 42.0092 34.9869 42.2058 34.8924 42.4244C34.7978 42.643 34.7497 42.8788 34.751 43.117V50.6563" fill="white"/>
<path d="M59.1602 56.616V47.1385C59.1602 43.3951 57.0611 41.254 53.4401 41.254C52.0057 41.254 50.3614 42.0272 49.6932 43.0242L49.2174 43.7239L48.808 42.9893C48.2378 41.9992 46.6879 41.24 45.2115 41.24C41.5766 41.24 39.4915 43.3811 39.4915 47.1245V56.693C39.4915 57.809 40.2191 58.7186 41.3247 58.7186C42.4302 58.7186 43.2034 57.809 43.2034 56.693V46.7432C43.2061 46.4804 43.2612 46.2209 43.3655 45.9797C43.4698 45.7386 43.6212 45.5207 43.8109 45.3389C44.0006 45.157 44.2246 45.0149 44.47 44.9208C44.7153 44.8267 44.9769 44.7826 45.2395 44.791C46.3486 44.791 47.4086 45.6271 47.4086 46.7432V54.8388V56.623V56.7105C47.3964 57.2351 47.593 57.7431 47.9551 58.1229C48.3172 58.5028 48.8152 58.7233 49.3398 58.7361C49.8632 58.7215 50.3595 58.5001 50.7201 58.1205C51.0807 57.7409 51.2763 57.2339 51.264 56.7105V46.7712C51.2814 46.2308 51.5119 45.7192 51.9052 45.3482C52.2985 44.9772 52.8226 44.7769 53.3631 44.791C53.6316 44.7807 53.8994 44.824 54.151 44.9184C54.4025 45.0128 54.6327 45.1564 54.8281 45.3407C55.0235 45.5251 55.1803 45.7465 55.2892 45.9921C55.398 46.2377 55.4569 46.5026 55.4623 46.7712V56.6195V56.707C55.45 56.9657 55.4899 57.2242 55.5794 57.4672C55.669 57.7102 55.8064 57.9328 55.9836 58.1217C56.1607 58.3106 56.374 58.462 56.6108 58.567C56.8476 58.6719 57.103 58.7282 57.362 58.7326C58.471 58.7326 59.1882 57.823 59.1882 56.707L59.1602 56.616Z" fill="white"/>
<path d="M64.1386 51.4557H67.9869C68.5109 51.451 69.0154 51.6542 69.3898 52.0208C69.7643 52.3874 69.9781 52.8874 69.9846 53.4114C69.9842 53.6704 69.9321 53.9267 69.8313 54.1653C69.7305 54.4039 69.583 54.62 69.3976 54.8009C69.2122 54.9817 68.9925 55.1238 68.7515 55.2186C68.5104 55.3134 68.2529 55.3591 67.9939 55.3531H64.1456L64.1386 51.4557ZM67.5356 44.6441C67.7984 44.6375 68.0599 44.6835 68.3047 44.7793C68.5495 44.875 68.7727 45.0186 68.9614 45.2017C69.15 45.3848 69.3002 45.6037 69.4032 45.8456C69.5062 46.0874 69.56 46.3474 69.5613 46.6102C69.5484 47.1339 69.329 47.6312 68.9508 47.9937C68.5726 48.3562 68.0664 48.5543 67.5426 48.5449H64.1421V44.6441H67.5356ZM73.6476 54.0306C73.627 53.0652 73.3116 52.1292 72.7438 51.3481C72.176 50.567 71.3829 49.9783 70.4709 49.6609L70.5234 49.633C71.3193 49.321 72.0004 48.7723 72.4746 48.0609C72.9489 47.3496 73.1934 46.5099 73.1753 45.6551C73.1753 43.2342 71.1636 41.268 68.3718 41.2505H62.2808C61.8066 41.2859 61.3624 41.4964 61.0346 41.841C60.7068 42.1856 60.5188 42.6397 60.5071 43.1152V43.1502L60.5351 56.8609V56.9449C60.5386 57.4187 60.7265 57.8725 61.0589 58.2102C61.3913 58.5478 61.8421 58.7427 62.3158 58.7536H68.2353C68.3438 58.7536 68.4522 58.7536 68.5642 58.7536C68.6761 58.7536 68.8336 58.7536 68.9665 58.7361C69.3425 58.7237 69.7147 58.6577 70.0721 58.5402C71.0771 58.279 71.9696 57.6976 72.6147 56.884C73.2599 56.0703 73.6224 55.0687 73.6476 54.0306Z" fill="white"/>
<path d="M21.9742 52.383V43.9445C22.0007 43.55 21.9761 43.1537 21.9007 42.7655C21.7607 42.2535 21.432 41.8134 20.9806 41.5341C20.628 41.32 20.2208 41.213 19.8086 41.2262H13.9415C13.4775 41.2253 13.0307 41.4018 12.6926 41.7195C12.5005 41.9086 12.353 42.1382 12.2611 42.3916C12.1692 42.645 12.135 42.9157 12.1612 43.184C12.1874 43.4523 12.2732 43.7113 12.4123 43.9422C12.5514 44.173 12.7404 44.3699 12.9654 44.5183C13.4657 44.8367 14.015 44.8052 14.5923 44.8052H18.3707V45.5644V51.7882C18.3707 51.9737 18.3707 52.1626 18.3707 52.3515V52.3795C18.367 53.2038 18.0376 53.9933 17.4544 54.5759C16.8712 55.1585 16.0813 55.4869 15.257 55.4897C14.4458 55.49 13.6664 55.1741 13.0843 54.6091C12.5023 54.044 12.1635 53.2743 12.1398 52.4635V52.341C12.1156 51.8809 11.9161 51.4476 11.5823 51.13C11.2485 50.8125 10.8058 50.6349 10.345 50.6337C9.86872 50.6347 9.41224 50.8245 9.07576 51.1617C8.73928 51.4988 8.55029 51.9557 8.55029 52.432C8.55193 52.5221 8.55894 52.6121 8.57128 52.7014C8.79169 56.3748 11.594 58.7818 15.4179 58.7818C22.1211 58.7818 21.9951 51.6518 21.9742 52.397" fill="white"/>
</svg>