<svg width="258" height="124" viewBox="0 0 258 124" fill="none" xmlns="http://www.w3.org/2000/svg">
<g opacity="0.15">
<g opacity="0.15">
<path opacity="0.15" fill-rule="evenodd" clip-rule="evenodd" d="M150.832 87.7694C150.811 87.7589 150.79 87.7483 150.769 87.7378H150.837C150.837 87.7431 150.832 87.7589 150.832 87.7694Z" fill="#1A1919"/>
</g>
</g>
<path fill-rule="evenodd" clip-rule="evenodd" d="M172.025 76.4128C174.11 76.3596 175.748 75.4978 176.913 73.8382C178.046 72.1733 178.621 70.0136 178.605 67.338C178.589 65.2209 178.318 63.4549 177.722 62.0878C176.616 59.4654 174.615 58.1888 171.679 58.2632C168.716 58.3377 166.7 59.6888 165.599 62.3059C165.019 63.6996 164.769 65.4869 164.78 67.6572C164.796 70.253 165.397 72.3488 166.583 74.0084C167.796 75.6734 169.589 76.4713 172.025 76.4128ZM173.956 51.3534C178.062 51.2524 181.302 52.6088 183.637 55.3642C185.972 58.1515 187.142 61.8165 187.169 66.3007C187.201 70.9498 186.079 74.8702 183.807 77.9713C181.541 81.1044 178.35 82.7055 174.238 82.8119C171.658 82.8811 169.567 82.4502 168.009 81.5033C167.062 80.9342 166.062 79.9182 164.966 78.4767L164.988 82.2534L156.977 82.4555L156.727 41.917L164.855 41.7148L164.945 56.1515C165.993 54.7419 167.099 53.6461 168.36 52.8801C169.823 51.9067 171.695 51.412 173.956 51.3534ZM139.848 58.2792C137.949 58.2579 136.481 58.8111 135.449 59.9282C134.391 61.0772 133.737 62.5985 133.455 64.5507L146.109 64.6837C145.976 62.6144 145.349 61.024 144.189 59.9388C143.029 58.8484 141.572 58.2952 139.848 58.2792ZM139.902 51.763C142.471 51.7896 144.806 52.3003 146.875 53.2524C148.944 54.2099 150.657 55.7259 151.987 57.7526C153.2 59.5505 153.971 61.6517 154.306 64.0081C154.498 65.3965 154.572 67.3806 154.524 69.9817L133.221 69.7583C133.311 72.7903 134.29 74.9234 136.12 76.1628C137.221 76.9075 138.566 77.317 140.146 77.3383C141.838 77.3596 143.189 76.8915 144.247 75.9925C144.838 75.4872 145.338 74.817 145.785 73.9127L154.083 74.0031C153.865 75.8117 152.886 77.6149 151.147 79.4341C148.466 82.3225 144.742 83.7534 139.949 83.7055C135.976 83.663 132.508 82.4076 129.486 79.8863C126.497 77.3915 125.008 73.3542 125.05 67.8061C125.093 62.5719 126.497 58.593 129.236 55.8483C131.965 53.0716 135.545 51.7205 139.902 51.763ZM207.388 67.4125C206.851 67.6891 206.313 67.9231 205.808 68.0827C205.276 68.2529 204.542 68.3806 203.632 68.4923L201.787 68.721C200.095 68.9338 198.845 69.1891 198.074 69.5774C196.776 70.2317 196.106 71.3169 196.015 72.8275C195.93 74.1946 196.239 75.1893 196.962 75.8276C197.701 76.4819 198.611 76.8383 199.712 76.9075C201.451 77.0138 203.069 76.5883 204.579 75.6893C206.116 74.7744 207.042 73.0084 207.207 70.3594L207.388 67.4125ZM202.276 63.3432C203.755 63.1464 204.829 62.9176 205.462 62.6357C206.622 62.1517 207.202 61.4123 207.202 60.3803C207.202 59.125 206.771 58.2686 205.872 57.8111C205.005 57.3217 203.728 57.093 202.015 57.093C200.1 57.0877 198.771 57.5451 197.957 58.4867C197.403 59.1675 197.026 60.0825 196.824 61.2527L189.052 61.2421C189.228 58.5877 189.983 56.4228 191.313 54.7099C193.43 52.029 197.111 50.6939 202.303 50.7045C205.664 50.7098 208.686 51.3641 211.287 52.6886C213.931 54.0291 215.234 56.5185 215.234 60.1729V73.1148C215.234 83.3651 205.691 82.764 197.723 82.7534C194.909 82.7481 192.621 81.9715 190.797 80.4023C188.967 78.8277 188.073 76.5989 188.073 73.7212C188.073 69.9817 189.526 67.2742 192.451 65.6199C194.047 64.7103 196.425 64.056 199.526 63.6624L202.276 63.3432ZM223.426 45.6937C226.096 45.6405 228.224 47.7576 228.165 50.4066C228.112 53.0556 225.883 55.2631 223.213 55.3163C220.542 55.3695 218.415 53.2524 218.473 50.6034C218.532 47.9544 220.755 45.7522 223.426 45.6937ZM215.069 94.2697C215.5 94.291 215.819 94.3123 216.021 94.3389C216.223 94.3335 216.367 94.3335 216.537 94.3282C217.319 94.3123 217.931 94.0995 218.346 93.7165C218.755 93.3388 218.973 92.5888 219 91.4718L219.729 57.96L227.755 57.7951L227.021 91.4505C226.952 94.5463 226.298 96.823 225.027 98.339C223.782 99.8284 221.367 100.621 217.787 100.695C217.553 100.701 217.181 100.679 216.718 100.69C216.229 100.669 215.654 100.653 214.931 100.669L215.069 94.2697ZM91.4745 67.4125C90.932 67.6891 90.4 67.9231 89.8947 68.0827C89.3628 68.2529 88.6234 68.3806 87.7191 68.4923L85.8733 68.721C84.1817 68.9338 82.9317 69.1891 82.1604 69.5774C80.8625 70.2317 80.1922 71.3169 80.1018 72.8275C80.0167 74.1946 80.3252 75.1893 81.0487 75.8276C81.7827 76.4819 82.6976 76.8383 83.7987 76.9075C85.5382 77.0138 87.1552 76.5883 88.6659 75.6893C90.1979 74.7744 91.1234 73.0084 91.2883 70.3594L91.4745 67.4125ZM86.352 63.3432C87.8308 63.1464 88.9053 62.9176 89.5436 62.6357C90.7032 62.1517 91.283 61.4123 91.283 60.3803C91.283 59.125 90.8468 58.2686 89.9479 57.8111C89.0808 57.3217 87.8042 57.093 86.0914 57.093C84.1764 57.0877 82.8466 57.5451 82.0327 58.4867C81.4795 59.1675 81.1019 60.0825 80.8997 61.2527L73.1335 61.2421C73.309 58.5877 74.0591 56.4228 75.3942 54.7099C77.5113 52.029 81.1923 50.6939 86.3839 50.7045C89.7457 50.7098 92.7618 51.3641 95.3683 52.6886C98.012 54.0291 99.3099 56.5185 99.3099 60.1729L99.3046 73.1148C99.3046 83.3651 89.767 82.764 81.7934 82.7534C78.9794 82.7481 76.6921 81.9715 74.8623 80.4023C73.0378 78.8277 72.1388 76.5989 72.1388 73.7212C72.1388 69.9817 73.5857 67.2742 76.5166 65.6199C78.1124 64.7103 80.4901 64.056 83.5913 63.6624L86.352 63.3432ZM60.2022 41.9542H68.7664V82.0619H60.2022V41.9542ZM249.448 67.4125C248.91 67.6891 248.373 67.9231 247.868 68.0827C247.336 68.2529 246.602 68.3806 245.692 68.4923L243.846 68.721C242.155 68.9338 240.91 69.1891 240.134 69.5774C238.836 70.2317 238.165 71.3169 238.075 72.8275C237.995 74.1946 238.304 75.1893 239.022 75.8276C239.761 76.4819 240.671 76.8383 241.772 76.9075C243.506 77.0138 245.128 76.5883 246.639 75.6893C248.171 74.7744 249.097 73.0084 249.261 70.3594L249.448 67.4125ZM244.33 63.3432C245.809 63.1464 246.884 62.9176 247.522 62.6357C248.682 62.1517 249.261 61.4123 249.261 60.3803C249.261 59.125 248.825 58.2686 247.926 57.8111C247.059 57.3217 245.783 57.093 244.07 57.093C242.155 57.0877 240.825 57.5451 240.011 58.4867C239.463 59.1675 239.086 60.0825 238.883 61.2527L231.112 61.2367C231.287 58.5824 232.043 56.4174 233.373 54.7046C235.49 52.0237 239.171 50.6885 244.362 50.6992C247.724 50.7045 250.746 51.3588 253.352 52.6833C255.99 54.0237 257.288 56.5132 257.288 60.1676V73.1095C257.288 83.3598 247.751 82.7587 239.777 82.7481C236.963 82.7427 234.676 81.9661 232.851 80.3969C231.027 78.8224 230.128 76.5936 230.128 73.7159C230.128 69.9764 231.575 67.2689 234.506 65.6145C236.101 64.7049 238.479 64.0507 241.58 63.657L244.33 63.3432ZM105.943 51.7045H113.885V56.7579C115.161 55.1674 119.023 52.1194 124.545 53.4493V61.3272C119.146 60.4229 113.954 64.9018 113.885 69.6891V82.1576H106.049L105.943 51.7045Z" fill="#DD1E2F"/>
<path d="M106.012 92.807C105.938 92.6102 105.874 92.4293 105.826 92.2644C105.778 92.0995 105.751 91.9187 105.751 91.7218C105.751 91.2537 105.906 90.8654 106.22 90.5516C106.533 90.2378 106.927 90.0835 107.395 90.0835C107.65 90.0835 107.869 90.126 108.039 90.2112C108.209 90.2963 108.353 90.392 108.464 90.5037C108.661 90.6793 108.805 90.8708 108.901 91.0835C108.991 91.3016 109.087 91.5782 109.188 91.924C109.432 92.7272 109.64 93.4134 109.805 93.9879C109.97 94.5677 110.087 95.0198 110.145 95.3549L110.347 96.3497L110.661 95.0783L111.73 91.4984C111.768 91.3761 111.816 91.2325 111.879 91.0782C111.938 90.9186 112.028 90.7644 112.145 90.6154C112.262 90.4665 112.417 90.3388 112.608 90.2378C112.8 90.1367 113.034 90.0835 113.316 90.0835C113.502 90.0835 113.693 90.1154 113.89 90.1846C114.087 90.2537 114.262 90.3548 114.417 90.4878C114.571 90.6261 114.699 90.791 114.805 90.9984C114.906 91.2006 114.959 91.4293 114.959 91.6899C114.959 91.8229 114.954 91.9453 114.933 92.0516C114.911 92.1527 114.879 92.2751 114.832 92.4134L112.603 98.5359C112.528 98.7221 112.449 98.8976 112.363 99.0625C112.278 99.2274 112.151 99.371 111.986 99.4934C111.821 99.6157 111.608 99.7168 111.342 99.7859C111.076 99.8604 110.746 99.8976 110.337 99.8976C109.975 99.8976 109.693 99.871 109.47 99.8179C109.246 99.7647 109.055 99.6689 108.901 99.5412C108.741 99.4083 108.608 99.2487 108.491 99.0519C108.379 98.8551 108.273 98.6104 108.161 98.3125L106.012 92.807Z" fill="#575756"/>
<path d="M117.646 89.4129C117.401 89.4129 117.172 89.365 116.965 89.2746C116.752 89.1841 116.571 89.0565 116.412 88.9075C116.252 88.7533 116.124 88.5724 116.034 88.3543C115.938 88.1415 115.896 87.9128 115.896 87.6628C115.896 87.4288 115.943 87.2053 116.034 86.9873C116.124 86.7745 116.252 86.5883 116.412 86.434C116.571 86.2798 116.752 86.1574 116.965 86.067C117.172 85.9766 117.401 85.9287 117.646 85.9287C117.88 85.9287 118.103 85.9766 118.321 86.067C118.534 86.1628 118.72 86.2851 118.874 86.434C119.029 86.5883 119.151 86.7745 119.241 86.9873C119.332 87.2053 119.38 87.4288 119.38 87.6628C119.38 87.9075 119.332 88.1362 119.241 88.3543C119.146 88.5724 119.023 88.7533 118.874 88.9075C118.72 89.0618 118.534 89.1841 118.321 89.2746C118.103 89.365 117.88 89.4129 117.646 89.4129ZM115.896 92.03C115.912 91.8332 115.933 91.6363 115.959 91.4395C115.991 91.2427 116.087 91.0353 116.247 90.8118C116.332 90.6895 116.486 90.5352 116.699 90.3491C116.912 90.1682 117.231 90.0725 117.651 90.0725C117.874 90.0725 118.087 90.1097 118.289 90.1895C118.491 90.2693 118.678 90.3916 118.843 90.5512C119.007 90.7108 119.14 90.9182 119.241 91.1682C119.337 91.4182 119.39 91.7108 119.39 92.0459V97.8546C119.39 98.0621 119.374 98.2695 119.353 98.477C119.327 98.6844 119.247 98.9025 119.114 99.1206C119.002 99.3068 118.88 99.4557 118.741 99.5621C118.603 99.6738 118.47 99.7589 118.337 99.8121C118.199 99.8653 118.071 99.9026 117.949 99.9238C117.827 99.9451 117.731 99.9504 117.656 99.9504C117.3 99.9504 116.991 99.8653 116.725 99.7057C116.459 99.5408 116.263 99.3387 116.124 99.1047C116.023 98.9238 115.97 98.7376 115.949 98.5515C115.933 98.3653 115.917 98.1951 115.901 98.0355V92.03H115.896Z" fill="#575756"/>
<path d="M121.092 92.1254C121.092 92.0137 121.098 91.886 121.114 91.7477C121.13 91.6094 121.156 91.4551 121.199 91.3062C121.241 91.1519 121.3 91.003 121.38 90.8541C121.459 90.7051 121.566 90.5668 121.699 90.4285C121.959 90.1945 122.279 90.0774 122.656 90.0774C122.779 90.0774 122.901 90.0827 123.018 90.0934C123.135 90.1093 123.247 90.1359 123.358 90.1838C123.582 90.2689 123.757 90.386 123.885 90.5243C124.013 90.6679 124.114 90.8115 124.178 90.9604C124.247 91.1094 124.289 91.253 124.305 91.3913C124.327 91.5349 124.337 91.6466 124.353 91.7317C124.38 91.6732 124.401 91.6041 124.428 91.5402C124.454 91.4711 124.481 91.4073 124.518 91.3487C124.704 91.0296 124.976 90.7317 125.337 90.4657C125.699 90.1945 126.13 90.0562 126.635 90.0562C127.178 90.0562 127.577 90.2104 127.837 90.5243C128.098 90.8381 128.226 91.2158 128.226 91.6573C128.226 91.8168 128.21 91.9817 128.172 92.1466C128.141 92.3115 128.071 92.4658 127.97 92.6094C127.869 92.753 127.742 92.8754 127.571 92.9765C127.406 93.0828 127.199 93.1467 126.954 93.1733C126.917 93.1733 126.848 93.1786 126.742 93.1839C126.635 93.1892 126.523 93.1999 126.406 93.1999C126.289 93.2052 126.178 93.2105 126.066 93.2211C125.96 93.2265 125.885 93.2318 125.848 93.2318C125.55 93.269 125.321 93.3541 125.156 93.4818C124.991 93.6095 124.864 93.7584 124.779 93.9233C124.688 94.0882 124.635 94.2584 124.624 94.434C124.603 94.6042 124.598 94.7531 124.598 94.8755V97.6043C124.582 97.7904 124.577 97.9713 124.571 98.1468C124.566 98.3224 124.534 98.4979 124.47 98.6735C124.348 99.0937 124.135 99.4128 123.837 99.6309C123.534 99.849 123.199 99.966 122.832 99.966C122.614 99.966 122.396 99.9235 122.178 99.8384C121.965 99.7533 121.779 99.6203 121.619 99.4501C121.374 99.1894 121.225 98.9128 121.178 98.6149C121.13 98.3117 121.103 98.0511 121.103 97.8277V92.1254H121.092Z" fill="#575756"/>
<path d="M130.183 89.2641C130.199 89.0194 130.226 88.7694 130.279 88.5087C130.327 88.2534 130.455 87.9981 130.667 87.7534C130.752 87.6577 130.891 87.5406 131.082 87.4023C131.274 87.264 131.54 87.2002 131.885 87.2002C132.098 87.2002 132.3 87.2374 132.502 87.3119C132.705 87.3864 132.88 87.4928 133.034 87.6417C133.189 87.7906 133.316 87.9821 133.412 88.2109C133.508 88.4449 133.561 88.7215 133.561 89.0407V90.2216H134.3C134.683 90.2375 134.976 90.3386 135.183 90.5248C135.396 90.7163 135.503 90.9982 135.519 91.3812C135.519 91.7854 135.391 92.0886 135.13 92.2855C134.971 92.4184 134.769 92.4982 134.529 92.5142C134.29 92.5355 133.971 92.5355 133.561 92.5248V96.3069C133.561 96.4558 133.582 96.5941 133.614 96.7218C133.651 96.8494 133.774 96.9399 133.981 96.9877C134.029 97.0037 134.146 97.0143 134.322 97.025C134.503 97.0356 134.62 97.0569 134.683 97.0835C134.854 97.142 135.029 97.275 135.199 97.4771C135.37 97.6793 135.46 97.9612 135.46 98.3123C135.46 98.7059 135.37 99.0091 135.194 99.2165C135.013 99.424 134.811 99.5782 134.577 99.674C134.343 99.7751 134.12 99.8336 133.901 99.8495C133.689 99.8655 133.545 99.8761 133.471 99.8761C133.226 99.8761 132.987 99.8655 132.752 99.8495C132.518 99.8283 132.284 99.791 132.05 99.7272C131.582 99.6048 131.215 99.4346 130.944 99.2112C130.673 98.9878 130.476 98.7431 130.343 98.4612C130.215 98.1846 130.135 97.8973 130.103 97.5941C130.072 97.2963 130.056 97.0037 130.056 96.7165C130.056 96.4239 130.061 96.0941 130.066 95.7324C130.072 95.3707 130.077 95.0036 130.082 94.626C130.088 94.2483 130.098 93.8813 130.109 93.5195C130.125 93.1578 130.13 92.828 130.13 92.5355C129.822 92.5514 129.593 92.5514 129.444 92.5355C129.295 92.5195 129.173 92.5036 129.077 92.477C128.832 92.3919 128.651 92.2429 128.54 92.0248C128.428 91.812 128.375 91.5833 128.375 91.3333V91.1578C128.375 91.1046 128.391 91.0407 128.412 90.961C128.46 90.7907 128.534 90.6578 128.625 90.5567C128.715 90.4556 128.816 90.3865 128.917 90.3333C129.024 90.2854 129.125 90.2535 129.231 90.2428C129.332 90.2322 129.423 90.2269 129.497 90.2269H130.178V89.2641H130.183Z" fill="#575756"/>
<path d="M136.454 92.2532C136.454 92.083 136.465 91.9022 136.481 91.7107C136.497 91.5192 136.556 91.3117 136.657 91.0936C136.758 90.8596 136.875 90.6787 137.018 90.5404C137.162 90.4021 137.306 90.301 137.455 90.2372C137.603 90.1681 137.742 90.1308 137.88 90.1096C138.013 90.0883 138.119 90.083 138.194 90.083C138.231 90.083 138.3 90.0883 138.396 90.0936C138.492 90.0989 138.609 90.1255 138.736 90.1681C138.864 90.2159 139.002 90.2798 139.141 90.3702C139.284 90.4659 139.417 90.5883 139.54 90.7479C139.625 90.8596 139.71 91.0192 139.8 91.2372C139.885 91.45 139.928 91.8224 139.928 92.349V96.131C139.928 96.2693 139.944 96.4023 139.965 96.5459C139.992 96.6896 140.056 96.8279 140.167 96.9608C140.242 97.0619 140.348 97.1523 140.492 97.2374C140.635 97.3279 140.806 97.3704 140.997 97.3704C141.354 97.3704 141.636 97.2481 141.848 96.9981C142.034 96.7906 142.146 96.5459 142.183 96.2693C142.221 95.9927 142.237 95.6097 142.237 95.115V92.2586C142.237 92.0511 142.247 91.8224 142.274 91.583C142.3 91.3436 142.37 91.1149 142.492 90.8915C142.63 90.6468 142.816 90.45 143.066 90.301C143.311 90.1521 143.598 90.0776 143.933 90.0776C144.29 90.0776 144.566 90.1468 144.753 90.2798C144.944 90.4128 145.077 90.5191 145.146 90.5936C145.407 90.8543 145.561 91.1202 145.614 91.4022C145.668 91.6841 145.694 91.9341 145.694 92.1415V98.1364C145.694 98.2694 145.689 98.4077 145.668 98.5407C145.652 98.679 145.609 98.8279 145.551 99.0035C145.391 99.3758 145.168 99.6258 144.886 99.7588C144.604 99.8918 144.338 99.9609 144.093 99.9609C143.896 99.9609 143.715 99.929 143.55 99.8705C143.386 99.8067 143.231 99.7269 143.098 99.6311C142.811 99.3971 142.641 99.1364 142.582 98.8492C142.524 98.562 142.481 98.3119 142.476 98.1045C142.364 98.4236 142.205 98.7003 142.003 98.9343C141.8 99.1684 141.572 99.3599 141.311 99.5141C141.05 99.6684 140.779 99.7854 140.481 99.8652C140.183 99.945 139.891 99.9875 139.598 99.9875C139.263 99.9875 138.901 99.929 138.508 99.8014C138.114 99.679 137.763 99.4769 137.439 99.1949C137.205 98.9875 137.024 98.7588 136.896 98.5194C136.768 98.28 136.667 98.0247 136.598 97.7534C136.529 97.4821 136.492 97.1949 136.481 96.897C136.465 96.5938 136.46 96.2853 136.46 95.9661V92.2532H136.454Z" fill="#575756"/>
<path d="M156.184 98.3548C156.184 98.4771 156.173 98.6314 156.152 98.8175C156.126 98.9984 156.062 99.1792 155.966 99.3441C155.87 99.509 155.716 99.6527 155.514 99.7803C155.312 99.9027 155.03 99.9612 154.673 99.9612C154.381 99.9612 154.136 99.9133 153.945 99.8229C153.753 99.7271 153.604 99.6154 153.492 99.4824C153.386 99.3495 153.301 99.2112 153.242 99.0782C153.189 98.9399 153.141 98.8282 153.104 98.7271C152.971 98.8601 152.822 99.0037 152.663 99.158C152.503 99.3122 152.301 99.4558 152.051 99.5835C151.806 99.7112 151.514 99.8176 151.173 99.8974C150.838 99.9771 150.429 100.02 149.95 100.02C148.966 100.02 148.194 99.775 147.636 99.2803C147.077 98.7909 146.795 98.0728 146.795 97.1207C146.795 96.5834 146.891 96.1313 147.083 95.7749C147.274 95.4185 147.514 95.1259 147.811 94.8972C148.104 94.6685 148.423 94.4929 148.769 94.3706C149.109 94.2482 149.444 94.1472 149.764 94.0727C149.849 94.0567 150.008 94.0301 150.232 93.9823C150.455 93.9344 150.7 93.8865 150.96 93.8333C151.221 93.7855 151.461 93.7376 151.689 93.695C151.913 93.6525 152.078 93.6206 152.179 93.594C152.301 93.5727 152.445 93.5195 152.609 93.4397C152.774 93.3599 152.859 93.195 152.859 92.9503C152.859 92.7375 152.769 92.5567 152.594 92.4078C152.413 92.2535 152.125 92.179 151.732 92.179C151.429 92.179 151.152 92.2109 150.913 92.2801C150.673 92.3492 150.471 92.5035 150.312 92.7482C150.28 92.8067 150.237 92.8652 150.205 92.9237C150.168 92.9769 150.131 93.0407 150.093 93.0993C149.992 93.2588 149.838 93.4131 149.625 93.5514C149.413 93.6897 149.157 93.7642 148.859 93.7642C148.679 93.7642 148.492 93.7376 148.306 93.6737C148.125 93.6152 147.96 93.5248 147.817 93.4131C147.673 93.3014 147.561 93.1631 147.466 92.9982C147.375 92.8333 147.327 92.6471 147.327 92.4343C147.327 92.296 147.354 92.1418 147.418 91.9556C147.482 91.7694 147.583 91.5833 147.732 91.3864C147.881 91.1896 148.077 90.9981 148.327 90.812C148.577 90.6311 148.902 90.4715 149.296 90.3332C149.689 90.2002 150.077 90.1098 150.455 90.0673C150.833 90.0247 151.2 90.0034 151.546 90.0034C151.764 90.0034 152.035 90.0141 152.354 90.03C152.673 90.0513 153.008 90.0938 153.354 90.1683C153.7 90.2428 154.04 90.3492 154.376 90.4875C154.716 90.6311 155.014 90.8332 155.28 91.0992C155.546 91.3598 155.759 91.6896 155.923 92.0833C156.088 92.4769 156.168 92.9556 156.168 93.5248V98.3548H156.184ZM152.961 95.3706C152.737 95.4451 152.556 95.5089 152.418 95.5674C152.274 95.6206 152.141 95.6685 152.024 95.7057C151.902 95.743 151.769 95.7802 151.636 95.8174C151.498 95.8547 151.338 95.8972 151.157 95.9451C151.056 95.9717 150.95 95.9983 150.833 96.0355C150.716 96.0728 150.604 96.126 150.498 96.1898C150.391 96.2589 150.306 96.3387 150.232 96.4398C150.157 96.5355 150.125 96.6579 150.125 96.8068C150.125 96.8334 150.131 96.8866 150.141 96.9717C150.152 97.0622 150.189 97.1473 150.253 97.2377C150.312 97.3281 150.413 97.4079 150.546 97.4771C150.684 97.5462 150.87 97.5781 151.115 97.5781C151.546 97.5781 151.907 97.4877 152.205 97.3122C152.498 97.1366 152.753 96.9611 152.961 96.7855V95.3706Z" fill="#575756"/>
<path d="M157.939 88.6205C157.95 88.3971 157.982 88.1471 158.03 87.8705C158.078 87.5939 158.227 87.3279 158.471 87.0672C158.62 86.9183 158.801 86.796 159.014 86.7002C159.232 86.6045 159.461 86.5513 159.705 86.5513C160.009 86.5513 160.28 86.6204 160.509 86.7534C160.737 86.8917 160.923 87.0566 161.072 87.2481C161.243 87.4928 161.344 87.7268 161.376 87.9502C161.402 88.1737 161.418 88.3864 161.418 88.5939V97.9027C161.407 98.1261 161.386 98.3442 161.354 98.557C161.322 98.7697 161.227 98.9985 161.067 99.2272C160.87 99.5251 160.642 99.7166 160.381 99.807C160.12 99.8974 159.881 99.9453 159.663 99.9453C159.429 99.9453 159.221 99.9134 159.046 99.8442C158.865 99.7751 158.716 99.6953 158.594 99.5942C158.258 99.3336 158.067 99.0463 158.014 98.7272C157.961 98.408 157.929 98.1314 157.929 97.8974V88.6205H157.939Z" fill="#575756"/>
<path d="M173.796 95.147C173.796 94.3331 173.897 93.6469 174.099 93.0831C174.302 92.5192 174.536 92.0777 174.791 91.7532C174.94 91.5564 175.137 91.3543 175.387 91.1362C175.637 90.9234 175.94 90.7266 176.291 90.5458C176.642 90.3702 177.041 90.2213 177.493 90.1042C177.94 89.9872 178.435 89.9287 178.977 89.9287C179.631 89.9287 180.217 90.0085 180.749 90.1681C181.275 90.3277 181.722 90.5404 182.094 90.8011C182.461 91.067 182.749 91.3649 182.951 91.6947C183.153 92.0298 183.254 92.365 183.254 92.7107C183.254 93.1416 183.116 93.498 182.839 93.7905C182.562 94.0778 182.179 94.2267 181.685 94.2267C181.515 94.2267 181.36 94.2001 181.233 94.1523C181.105 94.1044 180.993 94.0512 180.908 93.9874C180.823 93.9235 180.754 93.865 180.706 93.8012C180.658 93.7427 180.626 93.6948 180.61 93.6735C180.552 93.5884 180.504 93.498 180.461 93.4022C180.424 93.3118 180.376 93.2214 180.312 93.1363C180.286 93.099 180.254 93.0405 180.201 92.9607C180.153 92.8809 180.078 92.8065 179.977 92.732C179.881 92.6575 179.748 92.5884 179.589 92.5299C179.429 92.4713 179.238 92.4394 179.014 92.4394C178.621 92.4394 178.307 92.5192 178.078 92.6894C177.844 92.8543 177.663 93.0671 177.536 93.3278C177.408 93.5884 177.323 93.8703 177.286 94.1735C177.248 94.4821 177.232 94.7693 177.232 95.0406C177.232 95.1257 177.238 95.2374 177.243 95.3651C177.248 95.4927 177.259 95.631 177.28 95.78C177.302 95.9289 177.328 96.0778 177.371 96.2427C177.413 96.4023 177.467 96.5566 177.525 96.7055C177.695 97.0726 177.913 97.3119 178.169 97.4236C178.429 97.5353 178.685 97.5885 178.945 97.5885C179.376 97.5885 179.69 97.4981 179.897 97.3119C180.1 97.1257 180.264 96.9183 180.387 96.6842C180.435 96.5991 180.477 96.514 180.514 96.4236C180.552 96.3385 180.6 96.2587 180.663 96.1842C180.823 95.9661 181.004 95.8066 181.217 95.7161C181.424 95.6257 181.653 95.5778 181.897 95.5778C182.302 95.5778 182.642 95.7108 182.908 95.9768C183.179 96.2374 183.318 96.6045 183.318 97.0726C183.318 97.4396 183.222 97.8119 183.031 98.179C182.839 98.546 182.557 98.8705 182.179 99.1577C181.802 99.4397 181.339 99.6684 180.786 99.8492C180.233 100.025 179.6 100.115 178.887 100.115C178.259 100.115 177.642 100.035 177.041 99.8758C176.44 99.7163 175.865 99.3971 175.328 98.9184C174.956 98.6098 174.674 98.28 174.466 97.929C174.264 97.5779 174.11 97.2375 174.004 96.897C173.897 96.5566 173.833 96.2374 173.812 95.9395C173.807 95.631 173.796 95.3704 173.796 95.147Z" fill="#575756"/>
<path d="M189.121 89.9512C190.058 89.9512 190.839 90.1001 191.483 90.4033C192.121 90.7065 192.637 91.0948 193.031 91.5842C193.425 92.0736 193.707 92.6161 193.882 93.2279C194.052 93.8343 194.143 94.4407 194.143 95.0418C194.143 95.9141 194.01 96.6695 193.744 97.3078C193.478 97.9461 193.116 98.4727 192.653 98.8876C192.191 99.2972 191.648 99.6057 191.026 99.8079C190.398 100.01 189.722 100.111 188.994 100.111C188.414 100.111 187.914 100.058 187.494 99.9568C187.068 99.8504 186.712 99.7228 186.414 99.5685C186.116 99.4142 185.871 99.2547 185.685 99.0898C185.494 98.9249 185.345 98.7759 185.233 98.6376C184.765 98.1057 184.44 97.5418 184.259 96.9408C184.073 96.3397 183.983 95.6748 183.983 94.946C183.983 94.047 184.126 93.2811 184.419 92.6427C184.706 92.0044 185.089 91.4885 185.568 91.0948C186.047 90.7012 186.6 90.414 187.217 90.2278C187.829 90.0416 188.467 89.9512 189.121 89.9512ZM189.084 92.4778C188.674 92.4778 188.366 92.5789 188.143 92.7917C187.919 92.9991 187.754 93.2438 187.653 93.5204C187.547 93.797 187.488 94.0736 187.467 94.3502C187.451 94.6269 187.44 94.8396 187.44 94.9886C187.44 95.1375 187.451 95.3556 187.478 95.6428C187.504 95.9354 187.568 96.2226 187.674 96.5099C187.776 96.8025 187.935 97.0471 188.153 97.2599C188.366 97.4674 188.669 97.5738 189.063 97.5738C189.43 97.5738 189.722 97.4833 189.94 97.3078C190.159 97.1323 190.318 96.9142 190.43 96.6642C190.542 96.4088 190.605 96.1482 190.632 95.8716C190.653 95.595 190.669 95.3503 190.669 95.1428C190.669 94.4034 190.558 93.797 190.334 93.3183C190.228 93.0949 190.079 92.9034 189.893 92.7385C189.706 92.5576 189.44 92.4778 189.084 92.4778Z" fill="#575756"/>
<path d="M195.35 92.1582C195.35 92.0252 195.361 91.8709 195.377 91.7007C195.393 91.5252 195.43 91.3549 195.483 91.1741C195.542 90.9985 195.622 90.8283 195.733 90.6687C195.845 90.5092 195.999 90.3709 196.196 90.2645C196.43 90.1421 196.685 90.0783 196.973 90.0783C197.244 90.0783 197.499 90.1475 197.749 90.2804C197.946 90.3868 198.1 90.5251 198.217 90.6741C198.334 90.8283 198.42 90.9826 198.478 91.1368C198.531 91.2911 198.574 91.4347 198.59 91.5677C198.611 91.706 198.616 91.8071 198.616 91.8816C198.643 91.8337 198.664 91.7858 198.691 91.7326C198.717 91.6847 198.739 91.6369 198.765 91.5837C198.803 91.5092 198.877 91.3922 198.994 91.2273C199.111 91.0624 199.287 90.8922 199.521 90.7166C199.755 90.5464 200.047 90.3921 200.404 90.2538C200.76 90.1155 201.196 90.0517 201.712 90.0517C202.069 90.0517 202.414 90.1049 202.744 90.2006C203.074 90.2964 203.382 90.4613 203.67 90.6794C203.877 90.8602 204.031 91.0411 204.132 91.2166C204.228 91.3869 204.313 91.5571 204.393 91.7326C204.468 91.5996 204.547 91.4613 204.643 91.3177C204.734 91.1741 204.883 91.0198 205.095 90.8443C205.319 90.6634 205.611 90.4826 205.984 90.307C206.351 90.1368 206.851 90.0464 207.478 90.0464C207.856 90.0464 208.228 90.1049 208.585 90.2113C208.941 90.323 209.26 90.5092 209.542 90.7645C209.75 90.9454 209.915 91.1475 210.037 91.3656C210.159 91.5783 210.25 91.8018 210.314 92.0358C210.372 92.2699 210.409 92.5039 210.425 92.7486C210.436 92.988 210.447 93.238 210.447 93.4933V97.9935C210.447 98.1743 210.425 98.3711 210.388 98.5733C210.351 98.7754 210.26 98.9828 210.111 99.1903C209.941 99.4456 209.734 99.6371 209.484 99.7595C209.239 99.8818 208.978 99.9456 208.707 99.9456C208.329 99.9456 207.989 99.8286 207.696 99.5946C207.361 99.3392 207.159 99.0626 207.09 98.7648C207.016 98.4669 206.978 98.2169 206.978 98.0094V94.2486C206.978 93.9774 206.973 93.7965 206.957 93.7114C206.946 93.6263 206.925 93.5359 206.883 93.4348C206.808 93.2007 206.675 93.0199 206.484 92.8922C206.292 92.7592 206.085 92.6954 205.851 92.6954C205.505 92.6954 205.223 92.8124 205 93.0465C204.829 93.2273 204.723 93.4348 204.686 93.6529C204.648 93.871 204.633 94.1157 204.633 94.371V97.9296C204.633 98.1903 204.606 98.4509 204.558 98.7116C204.51 98.9775 204.361 99.2328 204.117 99.4775C203.978 99.6158 203.813 99.7222 203.617 99.8127C203.42 99.8978 203.202 99.9403 202.952 99.9403C202.755 99.9403 202.569 99.9084 202.398 99.8499C202.228 99.7861 202.074 99.7063 201.936 99.6105C201.739 99.4616 201.59 99.302 201.483 99.1211C201.377 98.9456 201.303 98.7648 201.255 98.5786C201.207 98.3924 201.18 98.2169 201.175 98.0413C201.17 97.8711 201.164 97.7168 201.164 97.5785V94.1476C201.164 94.0359 201.154 93.8976 201.138 93.7327C201.122 93.5678 201.069 93.4082 200.989 93.2646C200.909 93.1156 200.797 92.9933 200.648 92.8869C200.499 92.7805 200.297 92.7326 200.037 92.7326C199.776 92.7326 199.569 92.7858 199.409 92.8975C199.276 92.9933 199.164 93.105 199.09 93.222C199.01 93.339 198.951 93.4561 198.914 93.5837C198.882 93.7061 198.856 93.8284 198.84 93.9454C198.824 94.0625 198.819 94.1635 198.819 94.2486V97.9722C198.819 98.1796 198.797 98.3871 198.755 98.5892C198.712 98.7913 198.616 98.9988 198.467 99.2063C198.297 99.4403 198.09 99.6212 197.85 99.7488C197.611 99.8765 197.361 99.9456 197.106 99.9456C196.898 99.9456 196.685 99.9031 196.483 99.818C196.271 99.7329 196.09 99.6158 195.93 99.4669C195.669 99.2063 195.51 98.935 195.451 98.6477C195.393 98.3605 195.361 98.1052 195.361 97.8817V92.1582H195.35Z" fill="#575756"/>
<path d="M171.413 97.408C171.413 99.44 169.764 101.089 167.732 101.089C165.7 101.089 164.051 99.44 164.051 97.408C164.051 95.376 165.7 93.7271 167.732 93.7271C169.764 93.7271 171.413 95.376 171.413 97.408Z" fill="#DD1E2F"/>
<path d="M9.34855 38.2407C4.3745 38.2407 0.329372 42.2858 0.329372 47.2665V76.9724C0.329372 77.7235 0.434783 78.4548 0.606075 79.1531L24.4222 38.2407H9.34855V38.2407Z" fill="#DD1E2F"/>
<path d="M46.262 41.851C44.615 39.6638 42.006 38.2407 39.0611 38.2407H27.1037L1.66022 81.6632C3.24797 84.2589 6.09405 85.9982 9.35518 85.9982H20.5682L46.262 41.851Z" fill="#FFD84F"/>
<path d="M39.0611 85.9918C44.0352 85.9918 48.0803 81.9466 48.0803 76.9726V47.2666C48.0803 46.2059 47.8893 45.1914 47.5467 44.2427L23.0783 85.9918H39.0611Z" fill="#DD1E2F"/>
<path d="M39.0611 37.9111H9.34858C4.19665 37.9111 0 42.1078 0 47.2663V76.9723C0 82.1308 4.19665 86.3209 9.34858 86.3209H39.0545C44.2131 86.3209 48.4031 82.1242 48.4031 76.9723V47.2663C48.4097 42.1078 44.2131 37.9111 39.0611 37.9111ZM9.34858 41.2052H22.6171L3.29407 74.3963V47.2663C3.29407 43.9261 6.00839 41.2052 9.34858 41.2052ZM3.47854 78.4217L25.2853 41.2118H39.0611C41.479 41.2118 43.5608 42.6348 44.5359 44.6903L22.2086 83.0268H9.34858C6.50909 83.0268 4.12418 81.0635 3.47854 78.4217ZM39.0611 83.0268H24.7385L45.1156 48.2545V76.9723C45.1156 80.3125 42.4013 83.0268 39.0611 83.0268Z" fill="white"/>
</svg>
