<svg width="134" height="124" viewBox="0 0 134 124" fill="none" xmlns="http://www.w3.org/2000/svg">
<path d="M36.8644 96.2141H38.0677V120.166H33.5123V99.1225C33.5123 98.4382 34.9735 96.2141 36.8644 96.2141ZM61.7899 101.518C59.5552 101.518 57.8362 102.459 56.6329 104.341V96.2141H56.1172C53.8825 96.2141 52.6792 97.4118 52.0776 98.4383V98.2671V112.039C52.0776 117.428 54.9139 120.166 60.5866 120.166C66.2593 120.08 69.0097 117.001 69.0097 111.013C69.0097 104.768 66.6031 101.689 61.7899 101.518ZM60.4147 116.231C57.8362 116.231 56.5469 114.349 56.6329 110.756C56.8048 107.249 58.0081 105.538 60.5006 105.538C62.9932 105.538 64.1965 107.249 64.3684 110.756C64.3684 114.435 62.9932 116.231 60.4147 116.231ZM71.6742 110.756C71.8461 104.939 74.6824 101.689 80.7848 101.689H82.1601V106.394H80.0114C77.4329 106.394 76.3155 108.019 76.3155 110.671V120.08H71.6742V110.756ZM89.3799 115.461C90.1534 116.145 91.1849 116.488 92.5601 116.488C93.5055 116.488 94.365 116.231 95.0527 115.718C95.7402 115.204 96.17 114.691 96.3419 114.178H100.639C99.9518 116.316 98.9203 117.771 97.4592 118.712C95.998 119.653 94.365 120.08 92.3022 120.08C90.927 120.08 89.6377 119.824 88.5204 119.396C87.403 118.968 86.4576 118.284 85.6841 117.514C84.9105 116.659 84.3089 115.718 83.8791 114.606C83.4494 113.494 83.2774 112.211 83.2774 110.842C83.2774 109.559 83.5353 108.276 83.9651 107.163C84.3948 106.051 84.9964 105.025 85.77 104.255C86.5435 103.4 87.489 102.801 88.6064 102.288C89.7237 101.774 90.927 101.603 92.3022 101.603C93.7633 101.603 95.1385 101.86 96.2559 102.459C97.3732 103.057 98.3187 103.827 99.0063 104.768C99.6939 105.709 100.21 106.821 100.553 108.104C100.897 109.302 100.983 110.671 100.897 112.039H88.0906C88.2625 113.665 88.6923 114.777 89.3799 115.461ZM94.8807 106.223C94.279 105.624 93.4196 105.282 92.2163 105.282C91.4427 105.282 90.7551 105.453 90.2394 105.709C89.7237 105.966 89.294 106.308 89.0361 106.65C88.6923 107.078 88.5204 107.42 88.3485 107.848C88.1766 108.276 88.1766 108.703 88.0906 109.045H95.9981C95.9121 107.762 95.4823 106.821 94.8807 106.223ZM42.9668 96.2141H47.5222V100.32H42.9668V96.2141ZM42.9668 102.373H47.5222V120.08H42.9668V102.373ZM126.081 86.719C125.307 87.5744 124.276 88.0876 122.986 88.0876C121.697 88.0876 120.666 87.5744 119.892 86.719C119.119 85.8635 118.861 84.4094 118.861 82.6985C118.861 80.9022 119.205 79.6191 119.892 78.7636C120.666 77.9082 121.697 77.3949 122.986 77.3949C124.276 77.3949 125.307 77.9082 126.081 78.7636C126.854 79.6191 127.112 81.0732 127.112 82.6985C127.112 84.3238 126.854 85.6925 126.081 86.719ZM129.69 76.1118C128.315 74.3154 125.995 73.2889 122.986 73.2889C120.064 73.2889 117.657 74.1443 116.282 76.1118C114.907 77.9081 114.048 80.1323 114.048 82.613C114.048 85.1793 114.821 87.4033 116.282 89.1142C117.657 90.9106 119.978 91.8515 122.986 91.8515C125.909 91.8515 128.315 90.9961 129.69 89.1142C131.066 87.3178 131.925 85.0937 131.925 82.613C132.011 80.2178 131.238 77.9937 129.69 76.1118ZM107.343 86.719C106.742 87.5744 105.71 88.0876 104.421 88.0876C103.132 88.0876 102.101 87.5744 101.585 86.719C100.983 85.6925 100.725 84.4094 100.725 82.6985C100.725 81.1588 100.983 79.9612 101.585 79.0202C102.186 77.9937 103.132 77.4805 104.507 77.4805C105.367 77.4805 106.14 77.737 106.828 78.2503C107.859 79.1057 108.461 80.8166 108.461 83.0407C108.203 84.5805 108.031 85.8635 107.343 86.719ZM112.672 68.0709C112.672 68.0709 108.031 67.5576 108.031 71.2359V76.1118C107.515 75.3419 106.914 74.7431 105.968 74.1443C105.195 73.6311 104.163 73.5455 103.132 73.5455C100.811 73.5455 99.0063 74.4009 97.5451 76.1118C96.1699 77.737 95.4824 80.2178 95.4824 83.2973C95.4824 85.8635 96.084 88.0877 97.5451 89.5419C98.9203 91.1672 101.671 91.8515 104.077 91.8515C112.586 91.8515 112.415 84.6659 112.415 84.6659L112.672 68.0709ZM89.8096 84.5804C89.8096 86.1202 89.2939 87.1467 88.5204 87.7455C87.6609 88.2588 86.7154 88.601 85.77 88.601C85.1683 88.601 84.6526 88.5153 84.2228 88.0876C83.7931 87.6599 83.6212 87.2323 83.6212 86.4624C83.6212 85.607 83.965 84.9226 84.6526 84.4949C84.9964 84.2383 85.77 83.9817 86.7154 83.8961L87.7469 83.6395C88.2626 83.5539 88.6064 83.3828 89.0361 83.3828C89.294 83.2973 89.6378 83.1263 89.8956 83.0407L89.8096 84.5804ZM92.1303 74.5721C90.5832 73.8022 88.9502 73.46 86.9733 73.46C84.051 73.46 81.9022 74.2299 80.6989 75.7697C79.9254 76.7962 79.5816 77.9937 79.4097 79.4479H83.7931C83.8791 78.8491 84.137 78.3359 84.3948 77.9082C84.9105 77.395 85.684 77.1383 86.7154 77.1383C87.7468 77.1383 88.3485 77.2239 88.9501 77.4805C89.4658 77.7371 89.7237 78.2503 89.7237 79.0202C89.7237 79.619 89.3799 80.0467 88.6923 80.3033C88.3485 80.3889 87.6609 80.56 86.8874 80.6455L85.3402 80.731C83.5353 80.9877 82.2461 81.3299 81.3006 81.8431C79.6676 82.6985 78.8081 84.4094 78.8081 86.4624C78.8081 88.0877 79.3237 89.3708 80.3551 90.3118C81.3865 91.1672 82.6758 91.5949 84.3089 91.6804C94.365 92.0226 94.2791 86.3768 94.2791 85.2648V78.7636C94.365 76.8817 93.6774 75.3419 92.1303 74.5721ZM69.3535 77.3949C70.4709 77.3949 71.3304 77.7371 71.932 78.4214C72.2758 78.9347 72.5337 79.5335 72.5337 80.2178H77.4329C77.175 77.7371 76.3155 75.9407 74.8544 75.0853C73.4792 74.0588 71.5022 73.7166 69.1816 73.7166C66.4312 73.7166 64.2824 74.4865 62.7353 76.1974C61.1882 77.9082 60.4147 80.2178 60.4147 83.1263C60.4147 85.8636 61.0164 87.9166 62.4775 89.5419C63.8527 91.1672 66.0874 92.0226 69.0097 92.0226C71.932 92.0226 74.1668 90.9961 75.7139 89.1142C76.5734 87.8311 77.089 86.5479 77.2609 85.0937H72.3618C72.2758 85.9491 72.018 86.719 71.5023 87.3178C70.9866 87.8311 70.213 88.1732 69.0097 88.1732C67.4626 88.1732 66.2594 87.4033 65.8296 85.9491C65.5718 85.1792 65.3138 84.1527 65.3138 82.8696C65.3138 81.5865 65.3999 80.3889 65.8296 79.7046C66.6032 78.1648 67.6345 77.3949 69.3535 77.3949ZM59.1255 73.5455C48.8974 73.5455 49.585 82.5274 49.585 82.5274V91.5949H54.2263V83.1263C54.2263 81.7576 54.3123 80.6456 54.742 80.0468C55.3437 78.9347 56.5469 78.2503 58.4378 78.2503H58.9536C59.2115 78.2503 59.4692 78.2504 59.7271 78.3359V73.7166H59.3834C59.2974 73.5456 59.2974 73.5455 59.1255 73.5455ZM36.0908 78.2503C36.6924 77.6515 37.638 77.2238 38.8413 77.2238C39.8727 77.2238 40.8181 77.4805 41.5916 78.0793C42.3652 78.678 42.709 79.619 42.709 80.8166H34.8015C35.0594 79.7901 35.4032 78.9346 36.0908 78.2503ZM42.2793 86.719C42.1933 86.9756 41.9354 87.2323 41.6775 87.3178C41.0759 87.8311 40.1304 87.9166 39.099 87.9166C38.0676 87.9166 37.2942 87.8311 36.6066 87.3178C35.4892 86.719 34.8015 85.3503 34.8015 83.725H47.5222C47.5222 82.1852 47.5222 80.9877 47.4363 80.3033C47.1784 78.9347 46.8346 77.7371 46.0611 76.7106C45.2875 75.5986 44.2561 74.6576 43.1388 74.1443C42.0214 73.6311 40.5602 73.3745 39.0131 73.3745C36.4346 73.3745 34.3719 74.1443 32.8247 75.8552C31.2776 77.4805 30.3322 79.7901 30.3322 82.7841C30.3322 85.9491 31.1916 88.3443 33.0825 89.7129C34.8875 91.0816 36.9504 91.937 39.271 91.937C42.1074 91.937 44.342 91.0816 45.8032 89.3707C46.6627 88.5153 47.1784 87.5744 47.3503 86.6334L42.2793 86.719ZM28.3553 91.5093H24.0578V80.9877C24.0578 79.9612 23.7999 77.8226 20.9636 77.8226C19.1586 77.8226 17.7835 79.1058 17.7835 80.9877V91.5093H13.486V80.9877C13.486 79.9612 13.2281 77.8226 10.3918 77.8226C8.58684 77.8226 7.29751 79.1058 7.29751 80.9877V91.5093H3V81.0732C3 76.7106 5.83635 73.3745 10.3058 73.3745C12.5405 73.3745 14.3455 74.2299 15.6347 75.8552C16.924 74.3154 18.7289 73.3745 20.9636 73.3745C25.6049 73.3745 28.2694 76.5395 28.2694 81.0732L28.3553 91.5093ZM108.547 30.6035C108.547 15.9758 90.2394 4 67.6345 4C45.0297 4 26.7223 15.9758 26.7223 30.6035V32.1433C26.7223 47.7119 42.709 60.2865 67.6345 60.2865C92.646 60.2865 108.547 47.7119 108.547 32.1433V30.6035Z" fill="#2D3277"/>
<path d="M107.086 30.6037C107.086 44.3759 89.4658 55.5819 67.8064 55.5819C46.1469 55.5819 28.5272 44.3759 28.5272 30.6037C28.5272 16.8314 46.1469 5.62549 67.8064 5.62549C89.4658 5.62549 107.086 16.8314 107.086 30.6037Z" fill="#FFE600"/>
<path d="M54.742 22.7339C54.742 22.7339 54.3122 23.1616 54.5701 23.5037C55.1717 24.2736 57.0627 24.7013 59.0395 24.2736C60.1569 24.017 61.7039 22.8194 63.0791 21.7074C64.6262 20.5098 66.1734 19.2266 67.7205 18.7989C69.3535 18.2857 70.3849 18.5423 71.0725 18.7134C71.8461 18.97 72.7056 19.4833 74.1667 20.5098C76.8312 22.4772 87.6609 31.8869 89.5518 33.5122C91.013 32.8279 97.717 30.005 106.828 27.952C106.054 23.1616 103.132 18.7134 98.6625 15.1207C92.4741 17.6869 84.8245 19.0556 77.3468 15.4629C77.3468 15.4629 73.3073 13.5809 69.2676 13.6664C63.337 13.8375 60.8445 16.3182 58.0941 19.0556L54.742 22.7339Z" fill="white"/>
<path d="M89.1221 34.5381C89.0361 34.4526 76.4015 23.5032 73.5651 21.3646C71.9321 20.167 70.9865 19.8249 70.0411 19.6538C69.5254 19.5683 68.8378 19.6539 68.3221 19.8249C67.0328 20.1671 65.2279 21.3647 63.6808 22.5622C62.0478 23.8454 60.5866 25.043 59.2114 25.2996C57.4064 25.7274 55.2577 25.2141 54.3123 24.5297C53.8825 24.2731 53.6247 23.931 53.4528 23.5888C53.109 22.7334 53.7966 22.049 53.8825 21.9635L57.3205 18.1996L58.5238 17.002C57.4065 17.1731 56.375 17.4298 55.3436 17.6864C54.0544 18.0286 52.8511 18.3707 51.6478 18.3707C51.1321 18.3707 48.3817 17.943 47.866 17.7719C44.6858 16.9165 41.9354 16.0611 37.8098 14.1792C32.9106 17.8575 29.5586 22.3912 28.6132 27.4382C29.3008 27.6093 30.504 27.9514 30.9338 28.0369C42.1073 30.5177 45.5453 33.0839 46.2329 33.5972C46.9205 32.8273 47.8659 32.3996 48.9833 32.3996C50.1866 32.3996 51.3039 32.9984 51.9915 33.9394C52.5932 33.4261 53.5387 32.9984 54.6561 32.9984C55.1718 32.9984 55.6874 33.0839 56.289 33.255C57.5783 33.6827 58.18 34.5381 58.5238 35.308C58.9536 35.1369 59.4692 34.9658 60.0709 34.9658C60.6725 34.9658 61.2742 35.1369 61.9618 35.3935C64.0246 36.2489 64.3684 38.302 64.1965 39.8418H64.6263C67.1188 39.8418 69.0956 41.8092 69.0956 44.2899C69.0956 45.0598 68.9238 45.7441 68.58 46.3429C69.2676 46.6851 70.9006 47.5405 72.4477 47.3694C73.651 47.1983 74.0807 46.8561 74.2526 46.5995C74.3386 46.4284 74.5105 46.2573 74.3386 46.0863L71.1585 42.5791C71.1585 42.5791 70.6427 42.0658 70.8146 41.8947C70.9865 41.7236 71.3304 41.9803 71.5882 42.1514C73.2213 43.52 75.1121 45.4875 75.1121 45.4875C75.1121 45.4875 75.284 45.7441 75.9716 45.9152C76.5733 46.0008 77.6907 45.9152 78.4642 45.3164C78.6361 45.1453 78.8939 44.9742 78.9799 44.8031C79.7534 43.7766 78.894 42.7501 78.894 42.7501L75.1981 38.6442C75.1981 38.6442 74.6825 38.1309 74.8544 37.9598C75.0263 37.7887 75.37 38.0454 75.6278 38.2164C76.8311 39.1574 78.4643 40.8683 80.0114 42.408C80.3552 42.6646 81.7303 43.52 83.5353 42.3224C84.6526 41.5525 84.9105 40.6971 84.8245 40.0128C84.7386 39.1574 84.051 38.473 84.051 38.473L79.0658 33.4261C79.0658 33.4261 78.5502 32.9984 78.7221 32.7417C78.894 32.5707 79.2377 32.8273 79.4956 32.9984C81.1286 34.3671 85.4262 38.302 85.4262 38.302C85.5121 38.302 86.9733 39.414 88.8642 38.2164C89.5518 37.7887 89.9816 37.19 89.9816 36.4201C90.0675 35.308 89.1221 34.5381 89.1221 34.5381Z" fill="white"/>
<path d="M64.7981 40.9537C64.0246 40.9537 63.1651 41.3815 63.0791 41.3815C62.9932 41.3815 63.0791 41.0393 63.1651 40.8682C63.251 40.6971 64.2824 37.6177 61.7899 36.5056C59.899 35.6502 58.6957 36.5911 58.3519 37.0188C58.2659 37.1044 58.18 37.1044 58.18 37.0188C58.18 36.5056 57.9221 34.9658 56.2031 34.4526C53.7965 33.6827 52.3354 35.3936 51.9056 35.9924C51.7337 34.6237 50.6164 33.5972 49.1553 33.5972C47.6081 33.5972 46.4048 34.7947 46.4048 36.3345C46.4048 37.8742 47.6081 39.0719 49.1553 39.0719C49.9288 39.0719 50.5304 38.8152 51.0461 38.302V38.3875C50.9602 39.0718 50.7023 41.5526 53.2808 42.4935C54.3122 42.9213 55.1718 42.5791 55.9453 42.0658C56.2032 41.8948 56.2031 41.9803 56.2031 42.1514C56.1172 42.7502 56.2032 44.1188 58.18 44.8887C59.6412 45.4874 60.5006 44.8887 61.0163 44.3754C61.2742 44.1188 61.3601 44.2044 61.3601 44.5466C61.4461 46.343 62.9932 47.7971 64.7981 47.7971C66.689 47.7971 68.2361 46.2573 68.2361 44.3754C68.2361 42.4935 66.689 40.9537 64.7981 40.9537Z" fill="white"/>
<path d="M89.6377 33.2555C85.7699 29.9194 76.8311 22.1351 74.3385 20.3387C72.9633 19.3122 72.0179 18.7135 71.1584 18.5424C70.8146 18.4568 70.2989 18.2857 69.6113 18.2857C69.0096 18.2857 68.3221 18.3713 67.6345 18.6279C66.0874 19.1412 64.5402 20.3388 62.9931 21.5363L62.9072 21.6219C61.532 22.7339 60.0709 23.846 58.9535 24.1026C58.4378 24.1881 58.008 24.2736 57.4923 24.2736C56.289 24.2736 55.1717 23.9315 54.742 23.4182C54.656 23.3327 54.7419 23.1616 54.9138 22.9905L58.3518 19.3123C61.0163 16.6605 63.5089 14.1797 69.3535 14.0086H69.6113C73.2212 14.0086 76.8311 15.6339 77.2608 15.805C80.6988 17.4303 84.1368 18.2857 87.6608 18.2857C91.3566 18.2857 95.1385 17.3448 99.0922 15.5484C98.6624 15.2062 98.1468 14.7785 97.717 14.4363C94.1931 15.9761 90.9269 16.6604 87.6608 16.6604C84.3947 16.6604 81.1286 15.8906 77.9485 14.3508C77.7766 14.2653 73.8228 12.3833 69.6113 12.3833H69.2675C64.3684 12.4688 61.618 14.1797 59.813 15.7195C58.0081 15.7195 56.461 16.2327 55.0858 16.5749C53.8825 16.917 52.7651 17.1737 51.7337 17.1737H50.4445C49.2412 17.1737 43.2246 15.7195 38.4974 13.8376C37.9817 14.1797 37.552 14.5219 37.0363 14.864C42.0214 16.917 48.1238 18.4568 50.0147 18.6279C50.5304 18.6279 51.1321 18.7134 51.7337 18.7134C53.023 18.7134 54.2263 18.3713 55.5155 18.0291C56.2891 17.8581 57.0626 17.6014 57.8361 17.4303L57.1485 18.1147L53.7105 21.8785C53.4526 22.1352 52.851 22.905 53.1948 23.7604C53.3667 24.1026 53.7105 24.4447 54.1402 24.7869C54.9997 25.3001 56.4609 25.7279 57.8361 25.7279C58.3518 25.7279 58.8675 25.6423 59.2973 25.5568C60.7584 25.2146 62.3055 24.0171 63.8526 22.734C65.1419 21.7075 66.9468 20.4243 68.322 19.9966C68.7518 19.911 69.1815 19.8255 69.6113 19.8255H69.9551C70.9005 19.911 71.76 20.2532 73.3931 21.4508C76.2294 23.5894 88.8641 34.5387 88.95 34.6242C88.95 34.6242 89.7236 35.3086 89.7236 36.5062C89.7236 37.105 89.2939 37.7038 88.6922 38.1315C88.1765 38.4737 87.5749 38.6447 87.0592 38.6447C86.1997 38.6447 85.5981 38.217 85.5981 38.217C85.5981 38.217 81.2146 34.282 79.6675 32.9134C79.4096 32.6567 79.1518 32.4856 78.8939 32.4856C78.722 32.4856 78.636 32.5712 78.5501 32.6568C78.2922 32.999 78.5501 33.4266 78.8939 33.6833L83.965 38.7302C83.965 38.7302 84.5666 39.329 84.6525 40.0989C84.6525 40.9543 84.3088 41.6387 83.4493 42.1519C82.8477 42.5796 82.2459 42.7507 81.6443 42.7507C80.8707 42.7507 80.3551 42.4085 80.1832 42.323L79.4096 41.6387C78.1203 40.3556 76.7452 38.9869 75.7138 38.217C75.456 38.0459 75.1981 37.7893 74.9402 37.7893C74.8543 37.7893 74.6824 37.7893 74.5964 37.9603C74.5105 38.0459 74.4245 38.3025 74.6823 38.7302C74.7683 38.9013 74.9402 38.9869 74.9402 38.9869L78.636 43.0929C78.636 43.0929 79.4097 44.0338 78.7221 44.8037L78.5501 44.9748L78.2063 45.3169C77.6046 45.8302 76.7451 45.9158 76.4013 45.9158H75.8857C75.5419 45.8302 75.284 45.7447 75.1121 45.5736C74.9402 45.317 73.0493 43.5206 71.5022 42.2374C71.3303 42.0664 71.0724 41.8953 70.8146 41.8953C70.7286 41.8953 70.5567 41.9809 70.4708 42.0664C70.2129 42.4086 70.6427 42.9218 70.8146 43.0929L73.9948 46.5145C73.9948 46.5145 73.9947 46.6001 73.9088 46.7712C73.8228 46.9423 73.3932 47.2844 72.2758 47.4555H71.8461C70.6427 47.4555 69.4394 46.8567 68.7518 46.5145C69.0096 45.9157 69.1815 45.2315 69.1815 44.5471C69.1815 41.9809 67.1188 39.9279 64.5403 39.9279H64.3683C64.4543 38.7303 64.2824 36.5062 61.9618 35.5652C61.2742 35.3086 60.6725 35.1375 59.9849 35.1375C59.4692 35.1375 59.0395 35.223 58.5238 35.3941C58.0081 34.4531 57.2345 33.7689 56.2031 33.4267C55.6014 33.2556 55.0857 33.17 54.4841 33.17C53.5386 33.17 52.6791 33.4266 51.9056 34.0254C51.5322 33.5679 51.0603 33.1996 50.5247 32.9479C49.9892 32.6962 49.4036 32.5675 48.8114 32.5713C47.78 32.5713 46.7486 32.9989 46.061 33.6833C45.1156 32.9134 41.2478 30.5182 30.8478 28.123C30.3321 28.0375 29.2148 27.6954 28.5272 27.4388C28.4412 27.952 28.3552 28.5508 28.2693 29.1496C28.2693 29.1496 30.1603 29.5773 30.59 29.6628C41.1619 31.9725 44.6858 34.4531 45.2874 34.8809C45.1155 35.3941 45.0296 35.9074 45.0296 36.4207C45.0296 38.6447 46.8345 40.3556 48.9832 40.3556C49.2411 40.3556 49.499 40.3556 49.7568 40.27C50.1006 41.8953 51.132 43.0929 52.7651 43.6917C53.2808 43.8628 53.7105 43.9483 54.1402 43.9483C54.3981 43.9483 54.742 43.9483 55.0858 43.8628C55.3436 44.6326 56.0311 45.5736 57.5783 46.1723C58.094 46.429 58.6097 46.5145 59.1254 46.5145C59.5551 46.5145 59.9849 46.4291 60.3287 46.258C61.0163 47.9688 62.7353 49.1663 64.6262 49.1663C65.9155 49.1663 67.1188 48.6531 67.9783 47.7121C68.7518 48.1399 70.2989 48.9098 71.932 48.9098H72.5336C74.1666 48.7387 74.8542 48.0543 75.198 47.6266C75.284 47.5411 75.284 47.4555 75.37 47.37C75.7138 47.4555 76.1435 47.5411 76.6592 47.5411C77.5187 47.5411 78.3782 47.2844 79.2377 46.6001C80.0972 46.0013 80.6988 45.1459 80.6988 44.376C80.9567 44.4615 81.3005 44.4615 81.5583 44.4615C82.4179 44.4615 83.3633 44.2049 84.2228 43.6061C85.8558 42.5796 86.1137 41.1255 86.1137 40.27C86.3716 40.3556 86.7154 40.3556 86.9732 40.3556C87.8327 40.3556 88.6923 40.0989 89.4658 39.5857C90.4972 38.9013 91.0989 37.9604 91.1848 36.8484C91.2708 36.0785 91.0128 35.3085 90.669 34.6242C93.4194 33.4266 99.6078 31.2025 107 29.4917C107 28.8929 106.914 28.3796 106.742 27.7808C97.8889 29.6628 91.2707 32.4857 89.6377 33.2555ZM64.7981 47.5411C63.0791 47.5411 61.7039 46.1723 61.618 44.4615C61.618 44.2904 61.6179 43.9483 61.2741 43.9483C61.1022 43.9483 61.0163 44.0339 60.8444 44.1194C60.5006 44.4616 59.9849 44.8037 59.2973 44.8037C58.9535 44.8037 58.6097 44.7182 58.2659 44.5471C56.4609 43.7773 56.375 42.5797 56.461 42.0664C56.461 41.8953 56.461 41.8098 56.375 41.7242L56.289 41.6387H56.2031C56.1171 41.6387 56.0311 41.6386 55.8592 41.8097C55.3435 42.1519 54.8279 42.323 54.3122 42.323C54.0544 42.323 53.7106 42.2375 53.4527 42.1519C51.0461 41.211 51.218 38.9869 51.3899 38.3025C51.3899 38.1315 51.3899 38.0459 51.304 37.9603L51.132 37.7893L50.9601 37.9603C50.4444 38.3881 49.8428 38.6447 49.2411 38.6447C47.8659 38.6447 46.7486 37.5327 46.7486 36.164C46.7486 34.7953 47.8659 33.6833 49.2411 33.6833C50.4444 33.6833 51.5618 34.6242 51.7337 35.8218L51.8196 36.5062L52.1635 35.9073C52.1635 35.8218 53.1949 34.2821 55.0858 34.3676C55.4296 34.3676 55.7733 34.4531 56.2031 34.5387C57.6642 34.9664 57.9221 36.3351 57.9221 36.8484C57.9221 37.1905 58.18 37.1904 58.18 37.1904C58.2659 37.1904 58.4378 37.1049 58.4378 37.0194C58.6956 36.7628 59.2973 36.2495 60.2428 36.2495C60.6725 36.2495 61.1023 36.3351 61.618 36.5917C63.9386 37.6182 62.9072 40.5266 62.9072 40.6121C62.7353 41.1254 62.6494 41.2965 62.9072 41.4675H63.0791C63.165 41.4675 63.3369 41.4676 63.5088 41.382C63.8526 41.2965 64.2824 41.1255 64.7122 41.1255C66.4312 41.1255 67.8923 42.5796 67.8923 44.2905C67.9782 46.1724 66.5171 47.5411 64.7981 47.5411Z" fill="#2D3277"/>
</svg>
