<svg width="124" height="124" viewBox="0 0 124 124" fill="none" xmlns="http://www.w3.org/2000/svg">
<path d="M9.25979 62.0024C9.25979 91.1325 32.8747 114.742 62.001 114.742C91.1273 114.742 114.745 91.1321 114.745 62.0024C114.745 32.8728 91.1322 9.25233 62.001 9.25233C32.8698 9.25233 9.25979 32.8695 9.25979 62.0024ZM0 62.0024C0 27.7594 27.7599 0 62.001 0C96.2421 0 124 27.7594 124 62.0008C124 96.2422 96.2417 124 62.001 124C27.7603 124 0 96.2385 0 62.004" fill="white"/>
<path d="M93.3817 18.8871C93.3817 13.2795 97.9261 8.73659 103.521 8.73659C109.124 8.73659 113.655 13.2795 113.655 18.8871C113.655 24.4782 109.124 29.0186 103.521 29.0186C97.9261 29.0186 93.3817 24.481 93.3817 18.8871Z" fill="white"/>
<path d="M6.22131 62.0036C6.22131 31.1136 31.2589 6.08203 62.1418 6.08203C93.0246 6.08203 118.055 31.1136 118.055 62.002C118.055 92.8904 93.025 117.922 62.1418 117.922C31.2585 117.922 6.22131 92.8839 6.22131 62.0036Z" fill="#FFF200"/>
<path d="M93.3817 18.8869C93.3817 13.2792 97.9261 8.73633 103.521 8.73633C109.124 8.73633 113.654 13.2792 113.654 18.8869C113.654 24.4779 109.124 29.0184 103.521 29.0184C97.9261 29.0184 93.3817 24.4807 93.3817 18.8869" fill="white"/>
<path d="M98.0631 18.8865C98.0618 18.1687 98.2021 17.4577 98.4758 16.7942C98.7496 16.1307 99.1515 15.5277 99.6585 15.0197C100.165 14.5117 100.768 14.1086 101.431 13.8336C102.094 13.5586 102.804 13.417 103.522 13.417C106.546 13.417 108.974 15.8641 108.974 18.8865C108.975 19.6029 108.835 20.3126 108.561 20.9747C108.288 21.6369 107.886 22.2386 107.38 22.7453C106.873 23.2519 106.272 23.6537 105.61 23.9274C104.948 24.2012 104.238 24.3416 103.522 24.3406C102.805 24.3414 102.095 24.201 101.433 23.9272C100.771 23.6535 100.169 23.2519 99.6619 22.7453C99.1549 22.2388 98.7528 21.6372 98.4784 20.9751C98.2041 20.3129 98.063 19.6032 98.0631 18.8865" fill="#DF0209"/>
<path d="M86.1666 102.737V101.241C86.7564 101.236 87.3321 100.976 87.6902 100.501C88.453 99.6431 88.0698 98.4374 88.1739 97.3973C87.514 97.3726 86.8371 97.3127 86.1666 97.3495V95.9141C86.8358 95.9141 87.5087 95.9546 88.1617 95.9141C88.1617 95.0155 88.1439 94.108 88.1775 93.211C88.6456 93.1842 89.1148 93.1842 89.5828 93.211C89.6096 95.2537 89.5934 97.3212 89.5934 99.3801C89.5776 101.079 88.1281 102.654 86.4105 102.728C86.3297 102.736 86.2486 102.739 86.1674 102.737H86.1666ZM86.1674 95.9141V97.3495C85.7816 97.365 85.3994 97.4309 85.0307 97.5456C83.9199 98.1829 83.9272 99.9733 84.893 100.746C85.2353 101.089 85.7121 101.241 86.1674 101.239V102.737C85.1296 102.761 84.1338 102.21 83.4913 101.395V96.948C83.8268 96.519 84.2716 96.1783 84.8152 96.0211C85.2621 95.9474 85.7145 95.912 86.1674 95.9153V95.9141ZM75.8908 95.9453C75.8819 97.1846 75.8592 98.4386 75.8981 99.6832C75.9561 101.071 77.0085 102.342 78.3729 102.646C79.4995 102.93 80.767 102.588 81.5667 101.728C82.1492 101.14 82.4478 100.337 82.4636 99.5333C82.4972 98.3397 82.4636 97.1429 82.4725 95.9453C81.9507 95.9194 81.4279 95.9218 80.9064 95.9526C80.9064 97.1462 80.9153 98.3397 80.9064 99.5333C80.9064 100.419 80.1015 101.194 79.2119 101.173C78.3206 101.237 77.4428 100.441 77.457 99.5333C77.448 98.3397 77.4886 97.1429 77.448 95.9453C76.9291 95.9206 76.4082 95.9206 75.8908 95.9453ZM83.4913 96.948V101.396C83.1236 100.944 82.884 100.402 82.7974 99.8262C82.6171 98.8539 82.8752 97.7373 83.4913 96.9497V96.948ZM65.2894 102.872V101.479C65.3336 101.482 65.3781 101.476 65.4198 101.461C66.6153 101.42 67.6126 100.258 67.4716 99.0706C67.4044 97.9795 66.3629 97.1109 65.2894 97.0984V95.7071C66.6152 95.7107 67.897 96.4769 68.4917 97.6652C69.154 99.0301 68.9033 100.835 67.7714 101.86C67.1273 102.53 66.2162 102.873 65.2894 102.873V102.872ZM69.9148 96.3582C70.5026 95.8639 71.3079 95.9186 72.0282 95.9291C73.0025 95.9364 73.9666 95.9186 74.9376 95.9449C74.9534 96.4076 74.9534 96.8792 74.9376 97.3524C73.6818 97.3876 72.426 97.3346 71.1629 97.3718C70.7173 97.3645 70.3879 97.8503 70.5958 98.2563C70.9154 98.7331 71.5474 98.6095 72.0294 98.629C72.9474 98.6695 73.9852 98.4503 74.7938 99.0066C75.9062 99.6917 75.9573 101.504 74.9121 102.262C74.4426 102.646 73.8183 102.766 73.2245 102.76C72.0294 102.741 70.8376 102.774 69.6353 102.732C69.6231 102.273 69.6231 101.8 69.6353 101.337C70.9721 101.277 72.3187 101.374 73.6551 101.286C74.2627 101.269 74.439 100.292 73.8301 100.124C72.5678 99.8615 71.1252 100.395 69.9634 99.6528C68.8409 98.9519 68.802 97.0963 69.9176 96.3582H69.9148ZM65.2922 95.7099V97.1012C65.1034 97.1018 64.9156 97.1291 64.7344 97.1822C63.7755 97.4346 63.0305 98.379 63.114 99.3874C63.1192 100.514 64.1802 101.49 65.2926 101.483V102.876C64.4115 102.876 63.5219 102.56 62.8827 101.944C62.2206 101.351 61.8101 100.526 61.735 99.6402V98.9215C61.8565 97.4577 63.0046 96.1459 64.4492 95.814C64.7245 95.7417 65.0084 95.7078 65.293 95.7132L65.2922 95.7099ZM61.7354 101.223L61.748 101.206L61.7354 101.193V101.223ZM61.7354 98.9227V99.6415C61.7354 99.5001 61.7285 99.3623 61.7354 99.2282V98.9227ZM61.7354 101.192C61.4371 100.861 61.122 100.546 60.7911 100.249C60.3905 100.666 59.9947 101.128 59.4174 101.277C58.1357 101.698 56.6089 100.611 56.6368 99.2387C56.5453 97.9889 57.7508 96.8484 58.9864 96.9999C59.7561 97.0214 60.3297 97.5671 60.7834 98.1193C61.0925 97.7952 61.5126 97.5331 61.6945 97.1291C61.1298 96.0944 59.8549 95.547 58.6967 95.5965C57.1979 95.6107 55.8068 96.6981 55.3846 98.1424C55.0529 99.2582 55.2558 100.549 56.0523 101.444C56.8147 102.399 58.0842 102.903 59.304 102.723C60.2762 102.599 61.193 102.048 61.7366 101.224L61.7354 101.192ZM44.4218 102.723V101.274C44.8614 101.371 45.3434 101.36 45.7761 101.158C46.2492 100.963 46.5899 100.555 46.9103 100.155C47.2551 100.474 47.5823 100.812 47.8903 101.168C47.4277 101.803 46.7832 102.321 46.0135 102.566C45.5012 102.737 44.9563 102.789 44.421 102.716L44.4218 102.723ZM44.421 100.407C45.2401 99.7715 46.1001 99.1763 46.9229 98.537C47.3126 98.2157 47.7947 97.9828 48.0807 97.5716C47.5618 96.3444 46.2359 95.5637 44.9173 95.5904C44.7517 95.5831 44.5858 95.5884 44.421 95.6062V97.0469C44.9772 96.9254 45.5986 97.0327 46.1123 97.3119C45.5828 97.8114 44.9914 98.2157 44.421 98.6306V100.407ZM48.4003 98.7684C48.4003 100.084 48.4092 101.397 48.3967 102.717C48.8707 102.78 49.351 102.78 49.825 102.717C49.825 101.397 49.804 100.085 49.834 98.7684C49.8587 97.8365 50.7503 97.0805 51.6569 97.0979C52.6316 97.0574 53.5674 97.9297 53.5038 98.9211C53.5038 100.177 53.5038 101.441 53.4896 102.716C53.9717 102.779 54.4533 102.756 54.9516 102.73C54.9427 101.312 55.0043 99.8939 54.9232 98.4673C54.7644 96.7054 52.9054 95.4445 51.2085 95.7253C49.7096 95.8736 48.3416 97.2244 48.4015 98.7676L48.4003 98.7684ZM44.4222 95.6074V97.0481C44.0731 97.1101 43.7494 97.2721 43.4905 97.5144C42.8282 98.0456 42.611 98.9641 42.7702 99.7901C43.2239 99.6281 43.5573 99.2695 43.9474 98.994C44.0925 98.8757 44.2513 98.7538 44.4243 98.6318V100.408C44.1755 100.606 43.9337 100.797 43.7024 101.002C43.9289 101.127 44.1719 101.219 44.4243 101.277V102.718C43.452 102.567 42.5474 102.057 42.0111 101.245C41.2677 100.254 41.1458 98.8599 41.6206 97.7316C42.1099 96.6085 43.2114 95.7662 44.4243 95.6074H44.4222ZM34.7585 98.4872C34.49 99.7431 34.9826 101.095 35.9662 101.899C37.4598 103.263 40.1464 102.926 41.2183 101.187C40.9059 100.853 40.5879 100.525 40.2614 100.224C39.8466 100.73 39.3297 101.264 38.6264 101.333C37.3358 101.57 35.9799 100.402 36.0861 99.0714C36.1019 97.924 37.1843 96.9282 38.3336 96.9865C39.1227 96.9756 39.7862 97.493 40.2031 98.1209C40.5626 97.813 40.9 97.4802 41.213 97.1251C40.558 96.1309 39.3609 95.5414 38.178 95.5908C36.5467 95.5908 35.0356 96.878 34.7585 98.4864" fill="#DF0209"/>
<path d="M74.827 52.3308L75.7588 47.1295C75.7588 47.1295 69.4226 46.7244 68.3827 52.3308H66.1388L65.3513 55.9771H67.8601L65.9642 66.6754C65.2225 72.6821 71.7167 72.4285 71.7167 72.4285C78.6107 72.4285 78.0654 67.4707 78.0654 67.4707C78.0654 67.4707 71.581 70.7524 72.5589 64.8928L74.1671 55.9795H76.1959C76.1959 55.9795 78.413 55.9795 78.8031 54.6571L79.4355 52.3352L74.827 52.3308Z" fill="#DF0209"/>
<path d="M114.067 63.7858C112.64 69.485 108.403 72.319 102.293 72.319C97.4045 72.319 91.9494 69.2735 94.2427 60.2051C95.6606 54.5922 99.7521 51.6768 106.02 51.6768C111.662 51.6768 116.293 54.8904 114.067 63.7842V63.7858ZM105.754 55.3073C103.976 55.0176 101.876 56.9684 101.01 61.2872C100.263 65.0146 100.108 68.4178 102.62 68.7419C104.879 69.0349 106.594 66.5031 107.362 62.7705C108.23 58.5715 108.241 55.7209 105.754 55.3089" fill="#DF0209"/>
<path d="M52.314 64.0542C52.314 64.0542 51.2608 70.9563 63.5385 67.0559C63.5385 67.0559 63.9076 72.2771 56.4874 72.2771C56.4874 72.2771 44.1999 73.6258 45.7271 61.5188C45.7271 61.5188 47.0016 51.444 57.3365 51.444C57.3365 51.444 64.8576 51.1017 64.8576 57.0922C64.8576 57.0922 65.4134 64.4055 52.314 64.0542ZM57.2218 55.1993C53.5711 54.8801 52.5786 60.401 52.5786 60.401C52.5786 60.401 58.1135 60.9467 58.9715 57.9701C58.9715 57.9701 59.9437 55.4489 57.2218 55.2014" fill="#DF0209"/>
<path d="M87.7605 56.5149C90.9364 50.9405 95.156 52.0052 95.156 52.0052L93.7612 58.1974C87.6316 56.884 86.657 63.4368 86.657 63.4368L84.9831 71.7545H81.8533C78.0696 71.7545 79.2704 67.8825 79.2704 67.8825L82.2434 52.3273H85.9541C85.9541 52.3273 88.7048 52.2321 88.0444 54.7407L87.7605 56.5149Z" fill="#DF0209"/>
<path d="M12.0478 71.8462C12.0478 71.8462 15.0399 72.1298 16.0818 69.1414L22.8628 53.3334L21.272 68.4474C21.272 68.4474 20.4796 71.8462 23.6341 71.8462H26.7643C28.7222 71.8462 29.5291 70.0117 29.5291 70.0117L37.9876 54.1247L35.4715 68.9242C34.8501 72.0439 37.9876 71.8462 37.9876 71.8462H42.1504L46.3635 47.3778H39.4561C36.6739 47.3778 35.9722 48.8877 35.9722 48.8877L28.6614 62.1725L29.8269 50.2081C30.1834 47.0796 26.695 47.3778 26.695 47.3778H20.3475L9.63464 71.8462H12.0478Z" fill="#DF0209"/>
</svg>
