<svg width="240" height="124" viewBox="0 0 240 124" fill="none" xmlns="http://www.w3.org/2000/svg">
<path d="M64.3135 75.2903C57.191 68.199 57.4308 57.2268 64.9394 49.756C72.4001 42.333 83.4699 42.0489 90.5924 49.1402C97.7173 56.2315 97.4272 67.2515 89.9689 74.6745C82.4603 82.1477 71.4408 82.384 64.3135 75.2903ZM83.0383 56.6611C75.8174 49.4744 69.3209 47.3143 65.9011 50.7155C62.4358 54.1645 64.6517 60.585 71.8701 67.7718C79.0909 74.9609 85.5395 77.1664 89.0049 73.7174C92.4222 70.3162 90.2567 63.8478 83.0383 56.6611Z" fill="#390052"/>
<path d="M200.552 75.295C193.427 68.2037 193.67 57.2338 201.178 49.7607C208.639 42.3352 219.711 42.0488 226.834 49.1377C233.959 56.229 233.668 67.249 226.21 74.6744C218.699 82.1452 207.677 82.3839 200.552 75.295ZM219.277 56.6562C212.056 49.4695 205.557 47.3142 202.14 50.7154C198.675 54.1644 200.888 60.5849 208.109 67.7717C215.33 74.9584 221.778 77.1615 225.246 73.7125C228.663 70.3113 226.498 63.8454 219.277 56.6562Z" fill="#390052"/>
<path d="M135.903 45.2188C127.665 45.2188 121.267 48.7393 121.267 53.3507C121.267 56.0597 123.378 58.0909 126.306 58.0909C128.893 58.0909 130.934 56.0597 130.934 53.3507C130.934 50.909 129.301 49.083 127.121 48.6749C128.754 47.5913 131.001 46.9134 133.385 46.9134C138.898 46.9134 142.301 50.0974 142.301 55.0429V63.2417C140.395 61.9552 136.447 61.0745 132.771 61.0745C124.601 61.0745 118.612 65.2753 118.612 70.8987C118.612 76.3192 123.785 80.4532 130.39 80.4532C135.155 80.4532 139.786 78.2859 142.304 75.0327V79.7729H146.697C150.023 79.7729 152.719 77.0901 152.719 73.7796V57.752C152.716 50.6392 145.707 45.2188 135.903 45.2188ZM142.301 73.1304C140.735 75.5029 138.15 76.9922 135.359 76.9922C131.682 76.9922 129.299 74.214 129.299 70.1492C129.299 65.7455 132.09 63.1033 136.651 63.1033C138.898 63.1033 141.078 63.7119 142.301 64.7287V73.1304Z" fill="#390052"/>
<path d="M44.3202 44.9487C39.2145 44.9487 34.5165 47.9967 32.4062 52.4004C30.9097 47.9299 26.7561 44.9487 21.6505 44.9487C17.0197 44.9487 12.7318 47.5241 10.4152 51.3168V45.2877L0 47.0491V79.5029H4.39581C7.71964 79.5029 10.4152 76.8201 10.4152 73.5096V54.2311C11.914 50.7082 14.7726 48.2688 17.6312 48.2688C20.4898 48.2688 22.6001 50.6389 22.6001 53.7561V79.5029H26.9936C30.3198 79.5029 33.0153 76.8201 33.0153 73.5096V56.1287C33.0153 55.5868 33.0153 55.1119 32.9482 54.5701C34.3103 50.911 37.3032 48.2688 40.2313 48.2688C43.0899 48.2688 45.2003 50.6389 45.2003 53.7561V79.5029H49.5937C52.9199 79.5029 55.6155 76.8201 55.6155 73.512V56.1287C55.6203 49.6914 50.6513 44.9487 44.3202 44.9487Z" fill="#390052"/>
<path d="M123.128 45.8967C118.977 45.8967 114.286 47.2548 110.533 51.4533V45.2881L100.118 47.0496V79.5033H104.511C107.838 79.5033 110.533 76.8205 110.533 73.51V54.3652C112.44 50.0307 118.704 47.3861 122.857 47.3861C124.15 47.3861 125.308 47.725 126.263 48.3337H126.193C123.334 48.3337 121.224 50.3673 121.224 53.0763C121.224 55.7878 123.334 57.8189 126.193 57.8189C128.848 57.8189 130.889 55.7878 130.889 53.0763C130.889 48.8779 127.759 45.8967 123.128 45.8967Z" fill="#390052"/>
<path d="M192.279 62.6758C192.279 72.2447 184.115 79.503 173.295 79.503H158.465V45.8511H173.295C184.115 45.8511 192.279 53.1118 192.279 62.6758ZM181.458 62.6758C181.458 53.1118 177.592 46.813 171.748 46.813H169.091V78.5411H171.748C177.595 78.5411 181.458 72.2447 181.458 62.6758Z" fill="#390052"/>
<path d="M239.067 76.9322C239.067 74.9894 237.484 73.4141 235.532 73.4141C233.58 73.4141 231.997 74.9894 231.997 76.9322C231.997 78.8751 233.58 80.4504 235.532 80.4504C237.484 80.4504 239.067 78.8751 239.067 76.9322Z" fill="#390052"/>
</svg>
