<svg width="319" height="124" viewBox="0 0 319 124" fill="none" xmlns="http://www.w3.org/2000/svg">
<path d="M318.031 52.7022V46.7056H296.048V80.3596H318.031V74.363H302.061V66.2631H315.935V60.2665H302.061V52.7022H318.031Z" fill="#0C2340"/>
<path d="M242.874 80.3599H249.515L233.625 46.5229C233.35 45.9481 232.537 45.9481 232.262 46.5229L216.384 80.3599H223.026L225.987 74.0628H239.926L242.887 80.3599H242.874ZM228.791 68.0662L232.943 59.2085L237.096 68.0662H228.791Z" fill="#0C2340"/>
<path d="M207.175 46.7055L200.546 66.2891L191.245 46.4311C190.97 45.8563 190.157 45.8563 189.882 46.4311L180.581 66.2891L173.952 46.7055H167.611L179.087 80.5947C179.31 81.2348 180.188 81.2871 180.476 80.6731L190.563 59.1298L200.651 80.6731C200.939 81.2871 201.83 81.2348 202.039 80.5947L213.515 46.7055H207.175Z" fill="#0C2340"/>
<path d="M278.166 80.3596H285.411L276.961 67.8569C280.577 65.9887 283.053 62.2392 283.053 57.9018C283.053 51.7223 278.009 46.7056 271.826 46.7056H258.791V80.3596H264.804V69.1111H270.555L278.153 80.3596H278.166ZM264.804 52.7022H271.826C274.708 52.7022 277.053 55.0407 277.053 57.9149C277.053 60.7891 274.708 63.1276 271.826 63.1276H264.804V52.7022Z" fill="#0C2340"/>
<path d="M60.3058 52.7012V46.7046H38.3232V80.3586H60.3058V74.362H44.3363V66.2621H58.2097V60.2655H44.3363V52.7012H60.3058Z" fill="#0C2340"/>
<path d="M138.568 80.3594H145.21L129.319 46.5224C129.044 45.9476 128.232 45.9476 127.956 46.5224L112.079 80.3594H118.721L121.681 74.0623H135.62L138.581 80.3594H138.568ZM124.485 68.0657L128.638 59.208L132.791 68.0657H124.485Z" fill="#0C2340"/>
<path d="M20.3625 80.3586H27.607L19.1572 67.8559C22.7729 65.9877 25.2489 62.2382 25.2489 57.9008C25.2489 51.7213 20.2053 46.7046 14.0218 46.7046H1V80.3586H7.01311V69.1101H12.7642L20.3625 80.3586ZM7.01311 52.7012H14.0349C16.917 52.7012 19.262 55.0397 19.262 57.9139C19.262 60.7881 16.917 63.1266 14.0349 63.1266H7.01311V52.7012Z" fill="#0C2340"/>
<path d="M79.904 80.359V59.4951L101.533 80.5811C102.004 81.0383 102.804 80.7117 102.804 80.0455V46.705H96.7905V67.5689L75.1747 46.4959C74.7031 46.0387 73.904 46.3653 73.904 47.0316V80.359H79.9171H79.904Z" fill="#0C2340"/>
</svg>
