<svg width="123" height="124" viewBox="0 0 123 124" fill="none" xmlns="http://www.w3.org/2000/svg">
<path d="M11.9293 50.9565C8.51091 50.9565 5.91762 51.6666 3.91372 53.0866C1.90981 54.5067 0.966799 56.4001 0.966799 58.7668C0.966799 60.5419 1.43831 61.9619 2.38132 63.0269C3.32433 64.092 4.5031 64.802 5.79974 65.157C7.09639 65.512 8.74666 65.867 10.8684 66.222C12.8723 66.5771 14.2869 66.8137 15.112 67.1687C16.055 67.5238 16.4086 68.1154 16.4086 69.0621C16.4086 70.9555 14.6405 71.7839 11.1042 71.7839C9.5718 71.7839 8.0394 71.5472 6.38913 71.0739C4.85673 70.6005 3.44221 70.0088 2.38132 69.2988L0.141663 73.914C1.32043 74.7423 2.85283 75.4523 4.73885 75.9257C6.62488 76.399 8.62878 76.754 10.6327 76.754C14.169 76.754 16.8802 76.044 18.8841 74.624C20.888 73.2039 21.9489 71.3105 21.9489 68.9438C21.9489 67.1687 21.4773 65.7487 20.5343 64.802C19.5913 63.8553 18.5304 63.1453 17.2338 62.7903C15.9371 62.4353 14.2869 62.0802 12.283 61.7252C10.2791 61.3702 8.86454 61.0152 7.80365 60.6602C6.86063 60.3052 6.38913 59.5952 6.38913 58.6485C6.38913 57.8201 6.86063 57.1101 7.68577 56.6367C8.62878 56.1634 9.92543 55.8084 11.5757 55.8084C14.2869 55.8084 16.6444 56.4001 18.7662 57.7018L21.0058 53.2049C19.9449 52.4949 18.5304 52.0216 16.7623 51.6666C15.3478 51.1932 13.5796 50.9565 11.9293 50.9565Z" fill="#475BE0"/>
<path d="M50.3571 51.3115H44.4633V63.9736C44.4633 66.4587 43.8739 68.2337 42.5772 69.6538C41.3985 70.9555 39.6303 71.5472 37.6264 71.5472C35.7404 71.5472 34.3259 70.9555 33.265 69.8905C32.2041 68.8254 31.7326 67.0504 31.7326 64.802V51.3115H25.8387V65.6303C25.8387 69.2988 26.7818 72.0205 28.6678 73.9139C30.5538 75.8073 33.265 76.754 36.5655 76.754C38.2158 76.754 39.7482 76.399 41.1627 75.8073C42.5772 75.2156 43.756 74.2689 44.699 73.2039V76.399H50.2392V51.3115H50.3571Z" fill="#475BE0"/>
<path d="M66.742 50.9565C64.3844 50.9565 62.2627 51.4299 60.2588 52.4949C58.3727 53.4416 56.8403 54.8617 55.6616 56.7551C54.6007 58.6485 54.0113 60.6602 54.0113 63.0269C54.0113 65.3937 54.6007 67.5238 55.6616 69.4171C56.7225 71.3105 58.2549 72.7306 60.2588 73.6773C62.1448 74.7423 64.3844 75.2157 66.742 75.2157C68.5101 75.2157 70.0425 74.979 71.457 74.3873C72.8716 73.7956 74.1682 72.9673 75.1112 71.9022V73.2039C75.1112 75.8074 74.5218 77.7007 73.2252 78.8841C71.9285 80.1858 69.9246 80.7775 67.2135 80.7775C65.4453 80.7775 63.7951 80.5408 62.1448 79.9492C60.4945 79.3575 59.08 78.6474 58.0191 77.8191L55.3079 82.3159C56.7225 83.4993 58.4906 84.3276 60.6124 84.9193C62.7342 85.511 65.0917 85.866 67.4492 85.866C76.4079 85.866 80.8872 81.4875 80.8872 72.6123V51.3116H75.347V54.625C74.404 53.4416 73.1073 52.4949 71.5749 51.9032C70.1604 51.3116 68.5101 50.9565 66.742 50.9565ZM67.0956 70.1272C63.2057 70.1272 60.1409 66.9321 60.1409 63.1453C60.1409 59.2401 63.3235 56.1634 67.0956 56.1634C70.9855 56.1634 74.0503 59.3585 74.0503 63.1453C74.0503 67.0504 70.9855 70.1272 67.0956 70.1272Z" fill="#475BE0"/>
<path d="M98.0972 50.9565C95.6218 50.9565 93.2643 51.5482 91.2604 52.6133C89.2565 53.6783 87.6062 55.2167 86.5453 57.2284C85.3665 59.1218 84.7772 61.3702 84.7772 63.8553C84.7772 66.3404 85.3665 68.5888 86.5453 70.4822C87.7241 72.4939 89.2565 73.914 91.2604 75.0973C93.2643 76.1624 95.6218 76.754 98.0972 76.754C100.691 76.754 102.93 76.1624 104.934 75.0973C106.938 74.0323 108.588 72.4939 109.649 70.4822C110.828 68.4704 111.417 66.3404 111.417 63.8553C111.417 61.3702 110.828 59.1218 109.649 57.2284C108.47 55.335 106.938 53.7966 104.934 52.6133C102.93 51.5482 100.573 50.9565 98.0972 50.9565ZM98.0972 70.8372C94.2073 70.8372 91.1425 67.6421 91.1425 63.8553C91.1425 59.9502 94.3252 56.8734 98.0972 56.8734C101.987 56.8734 105.052 60.0685 105.052 63.8553C105.052 67.7604 101.869 70.8372 98.0972 70.8372Z" fill="#475BE0"/>
<path d="M122.616 48.2348C121.79 51.5482 118.49 52.9683 115.307 51.3115C112.125 49.6548 110.474 46.4597 111.771 44.2113C113.068 41.9629 116.25 40.5429 119.079 41.1346C121.79 41.6079 123.441 44.803 122.616 48.2348Z" fill="#475BE0"/>
</svg>
