<svg width="235" height="122" viewBox="0 0 235 122" fill="none" xmlns="http://www.w3.org/2000/svg">
<path d="M37.753 45.3305C37.1744 45.3542 36.6011 45.4508 36.0471 45.6181C35.492 45.7378 34.9575 45.9372 34.4605 46.2101C33.8905 46.5185 33.4046 46.9597 33.0446 47.4955C32.6297 48.0759 32.27 48.6931 31.9698 49.3391C30.8097 51.8593 29.0697 55.7664 26.7154 61.1788C24.3612 66.5913 22.0411 71.9022 19.5845 77.7375H17.4009C14.8988 71.5921 12.4706 65.7005 10.1164 60.0625C7.76215 54.4246 6.18128 50.5795 5.37379 48.5273C5.17271 48.0538 4.88983 47.6188 4.53787 47.2418C4.13697 46.821 3.6704 46.467 3.15604 46.1932C2.667 45.9126 2.13779 45.7072 1.58655 45.5843C1.06556 45.457 0.53494 45.3721 0 45.3305L0 43.6392H15.3537V45.3305C14.2439 45.3773 13.1383 45.496 12.0441 45.6857C11.157 45.8549 10.6964 46.1593 10.6964 46.616C10.7009 46.8242 10.7413 47.0302 10.8158 47.2249C10.8158 47.4617 10.9352 47.6647 10.9864 47.8C11.6347 49.3391 12.6924 51.8762 14.1254 55.3774C15.5584 58.8785 17.6226 63.8343 20.301 70.3461C21.6146 67.42 23.15 63.9527 24.873 59.961C26.596 55.9694 27.7561 53.1955 28.2849 51.7578C28.7001 50.7954 29.0311 49.7995 29.2744 48.781C29.361 48.3292 29.4066 47.8707 29.4109 47.4109C29.4176 47.2427 29.3839 47.0753 29.3128 46.9224C29.2416 46.7695 29.1349 46.6355 29.0014 46.5314C28.5583 46.2484 28.0754 46.0319 27.5684 45.8887C27.0067 45.7397 26.4372 45.6212 25.8624 45.5335L24.1565 45.3475V43.6561H37.9407L37.753 45.3305Z" fill="black"/>
<path d="M86.4242 67.3864L85.7248 77.2979H55.0174V75.6066C55.5292 75.6066 56.2457 75.5051 57.0987 75.3867C57.6776 75.3532 58.2503 75.251 58.8046 75.0822C59.2828 74.905 59.69 74.5786 59.9647 74.152C60.2005 73.704 60.3124 73.2021 60.2888 72.6974V48.5275C60.3005 48.051 60.2074 47.5777 60.0159 47.1405C59.7469 46.6775 59.3159 46.3285 58.8046 46.1595C58.2007 45.9123 57.5715 45.7308 56.9281 45.6183C56.2967 45.4891 55.659 45.3931 55.0174 45.3308V43.6394H83.5923V51.758H81.6646C81.1898 50.3426 80.4229 49.0408 79.4127 47.9355C78.6266 46.8138 77.4463 46.0236 76.1031 45.7198C75.5743 45.7198 74.926 45.6014 74.1754 45.5676C73.4248 45.5337 72.5718 45.5676 71.6164 45.5676H65.7991V58.9464H69.9446C70.9345 58.9871 71.9248 58.873 72.8789 58.6081C73.5365 58.3741 74.1235 57.9783 74.5848 57.458C75.0107 56.9017 75.3394 56.2785 75.5572 55.6144C75.8121 54.9138 75.9894 54.1879 76.0861 53.4494H78.0479V66.6253H76.052C75.9673 65.8044 75.7781 64.9974 75.489 64.2235C75.2916 63.5629 74.9735 62.9437 74.5507 62.3968C74.0712 61.8195 73.4302 61.3958 72.7083 61.179C71.8145 60.9679 70.8972 60.8713 69.9787 60.8915H65.7991V71.0398C65.7765 71.8463 65.8509 72.6526 66.0209 73.4416C66.1554 73.978 66.483 74.4472 66.9421 74.7609C67.501 75.0985 68.1321 75.3013 68.7845 75.3529C69.5863 75.4374 70.6782 75.4712 72.1965 75.4712H74.4825C75.2471 75.4468 76.01 75.3847 76.7685 75.2852C77.4579 75.2192 78.1419 75.1062 78.8156 74.9469C79.3703 74.8491 79.8919 74.6167 80.3339 74.2704C81.3234 73.263 82.1674 72.1246 82.8417 70.8876C83.508 69.811 84.0788 68.6792 84.5477 67.5048L86.4242 67.3864ZM75.4719 37.5842L71.9065 39.1572L66.5327 41.559L65.7138 40.6287L69.6034 37.2459C70.5076 36.3833 71.497 35.4362 72.4694 34.489C72.9273 34.0395 73.4436 33.6527 74.0048 33.3388C74.4623 33.1191 74.9636 33.0036 75.4719 33.0006C76.0854 32.9882 76.6856 33.1786 77.1779 33.5418C77.3929 33.6976 77.5682 33.9011 77.6896 34.136C77.8111 34.371 77.8754 34.6309 77.8773 34.8949C77.8921 35.1947 77.8401 35.4941 77.7251 35.7718C77.6102 36.0495 77.435 36.2987 77.212 36.5017C76.6904 36.9476 76.1037 37.3125 75.4719 37.5842Z" fill="black"/>
<path d="M136.017 67.3016L135.232 77.2977H106.231V75.6063L108.056 75.4372C108.636 75.405 109.21 75.297 109.762 75.1158C110.233 74.9598 110.632 74.6419 110.888 74.2194C111.146 73.7542 111.27 73.2276 111.246 72.6972V48.6287C111.241 48.1338 111.118 47.647 110.888 47.208C110.627 46.7408 110.202 46.3854 109.694 46.2101C109.142 45.9771 108.571 45.7904 107.988 45.6519C107.401 45.4929 106.802 45.3853 106.196 45.3305V43.6392H121.84V45.3305C121.204 45.3684 120.572 45.4475 119.946 45.5673C119.371 45.6667 118.802 45.7966 118.241 45.9564C117.981 46.022 117.739 46.142 117.53 46.3083C117.321 46.4746 117.15 46.6833 117.029 46.9204C116.811 47.3806 116.7 47.8835 116.705 48.392V70.9889C116.688 71.8048 116.751 72.6205 116.893 73.4245C116.967 73.9594 117.249 74.4446 117.678 74.7776C118.196 75.0871 118.78 75.2724 119.384 75.3188C120.518 75.4229 121.657 75.4681 122.795 75.4541H124.809C125.491 75.4541 126.173 75.3526 126.787 75.2681C127.364 75.1773 127.934 75.0473 128.493 74.879C128.932 74.7737 129.333 74.5515 129.653 74.2363C130.59 73.1899 131.424 72.0571 132.144 70.8535C132.905 69.7189 133.562 68.5189 134.106 67.2678L136.017 67.3016Z" fill="black"/>
<path d="M185.763 67.3862L185.063 77.2977H154.356V75.6063C154.885 75.6063 155.584 75.5049 156.454 75.3865C157.033 75.3511 157.605 75.2489 158.16 75.082C158.641 74.9093 159.049 74.5817 159.32 74.1518C159.556 73.7038 159.668 73.2019 159.644 72.6972V48.5273C159.656 48.0508 159.563 47.5775 159.371 47.1403C159.103 46.6773 158.672 46.3283 158.16 46.1593C157.55 45.9124 156.916 45.731 156.267 45.6181C155.641 45.4867 155.009 45.3907 154.373 45.3305V43.6392H183.067V51.7578H181.003C180.542 50.3362 179.774 49.0316 178.751 47.9353C177.968 46.8182 176.795 46.0288 175.459 45.7196C174.913 45.6519 174.265 45.6012 173.514 45.5673C172.763 45.5335 171.91 45.5335 170.955 45.5673H165.138V58.9462H169.3C170.296 58.9901 171.292 58.8759 172.252 58.6079C172.909 58.3739 173.496 57.9781 173.958 57.4578C174.39 56.9056 174.719 56.2812 174.93 55.6142C175.185 54.9136 175.362 54.1877 175.459 53.4492H177.421V66.6251H175.442C175.357 65.8041 175.168 64.9971 174.879 64.2233C174.674 63.5655 174.357 62.9475 173.94 62.3966C173.464 61.8162 172.822 61.3918 172.098 61.1788C171.199 60.9659 170.276 60.8692 169.351 60.8913H165.138V71.0396C165.115 71.8461 165.189 72.6524 165.359 73.4414C165.494 73.9778 165.822 74.447 166.281 74.7607C166.847 75.0952 167.483 75.2976 168.14 75.3526C169.275 75.4499 170.413 75.4895 171.552 75.471H173.821C174.618 75.4775 175.416 75.4436 176.209 75.3695C176.898 75.3008 177.582 75.1878 178.257 75.0313C178.805 74.9308 179.321 74.6985 179.758 74.3547C180.747 73.3474 181.591 72.209 182.266 70.9719C182.932 69.8954 183.503 68.7636 183.972 67.5892L185.763 67.3862Z" fill="black"/>
<path d="M234.775 66.8281L233.53 77.3316H203.76V76.4689L227.081 45.5166H218.551C217.539 45.5166 216.703 45.5166 216.043 45.5166C215.425 45.5442 214.81 45.612 214.201 45.7196C212.67 46.1528 211.316 47.0521 210.328 48.2905C208.964 49.6939 207.861 51.326 207.07 53.1109H205.245L206.422 43.6392H234.195V44.4679L210.857 75.4203H219.66C221.24 75.42 222.818 75.324 224.386 75.1328C225.547 75.1196 226.681 74.7857 227.661 74.1687C228.863 73.105 229.923 71.8944 230.817 70.566C231.643 69.3908 232.351 68.1389 232.933 66.8281H234.775Z" fill="black"/>
</svg>
