<svg width="166" height="124" viewBox="0 0 166 124" fill="none" xmlns="http://www.w3.org/2000/svg">
<path d="M65.1392 32H12.5609C8.48406 32 5.87309 36.3416 7.7805 39.9514L13.039 49.928H3.50511C1.56912 49.928 0 51.5014 0 53.4407C0 54.0102 0.138171 54.5718 0.403397 55.0761L17.3191 87.1489C18.226 88.8623 20.3478 89.5161 22.0582 88.6093C22.6792 88.28 23.1874 87.7709 23.5162 87.1489L28.1108 78.4848L33.8743 89.4159C35.9024 93.2611 41.3975 93.2675 43.4336 89.427L69.7878 39.7493C71.6524 36.2366 69.1113 32 65.1392 32ZM41.5214 53.2259L30.158 74.6507C29.5545 75.7914 28.141 76.2257 27.0023 75.6211C26.5893 75.4016 26.2526 75.0643 26.0335 74.6507L14.7796 53.3166C14.1761 52.1759 14.6113 50.7616 15.75 50.157C16.0851 49.9789 16.4567 49.8866 16.8347 49.885H39.5155C40.7702 49.885 41.7866 50.9032 41.7866 52.16C41.7866 52.5307 41.6961 52.8966 41.5214 53.2259ZM121.062 55.0459H115.311V74.7907C115.31 75.1645 115.008 75.4684 114.633 75.47H110.198C109.824 75.4684 109.521 75.1661 109.519 74.7907V55.0459H103.734C103.375 55.0602 103.071 54.7802 103.057 54.4207C103.057 54.4143 103.057 54.408 103.057 54.4V50.908C103.06 50.5484 103.354 50.2589 103.715 50.262C103.721 50.262 103.729 50.262 103.735 50.262H121.061C121.434 50.2445 121.753 50.5325 121.772 50.9064V54.4C121.753 54.777 121.435 55.0634 121.062 55.0459ZM139.525 75.3284C138.34 75.497 136.347 75.7691 132.689 75.7691C128.322 75.7691 124.463 74.6491 124.463 68.478V57.2127C124.463 51.04 128.357 49.955 132.723 49.955C136.377 49.955 138.339 50.227 139.525 50.3957C139.998 50.4625 140.203 50.6343 140.203 51.075V54.233C140.201 54.6068 139.9 54.9107 139.525 54.9123H132.386C130.795 54.9123 130.22 55.4548 130.22 57.2191V60.3055H139.255C139.628 60.3055 139.931 60.6093 139.933 60.9848V64.2048C139.933 64.5786 139.63 64.8825 139.255 64.8841H130.22V68.4795C130.22 70.2423 130.795 70.7864 132.386 70.7864H139.525C139.898 70.788 140.201 71.0902 140.203 71.4657V74.6205C140.203 75.0564 140 75.26 139.525 75.3284ZM165.071 75.4636H159.688C159.248 75.4636 159.045 75.322 158.809 74.9561L154.141 67.533L149.912 74.7923C149.673 75.1995 149.438 75.4716 149.068 75.4716H144.058C143.719 75.4716 143.549 75.268 143.549 75.0309C143.556 74.9482 143.579 74.867 143.616 74.7923L150.95 62.5407L143.54 50.908C143.502 50.8459 143.479 50.7759 143.473 50.7043C143.498 50.445 143.721 50.2525 143.98 50.2636H149.43C149.802 50.2636 150.074 50.6025 150.274 50.908L154.605 57.7584L158.797 50.908C158.966 50.6025 159.271 50.2636 159.641 50.2636H164.651C164.91 50.2525 165.134 50.445 165.16 50.7043C165.153 50.7759 165.13 50.8459 165.091 50.908L157.717 62.6139L165.407 74.7939C165.468 74.8973 165.503 75.0134 165.509 75.1327C165.512 75.3284 165.342 75.4636 165.071 75.4636ZM99.7536 50.3273C99.7934 50.3273 99.8315 50.332 99.8696 50.34C100.151 50.4052 100.327 50.6852 100.262 50.9668C100.262 50.9668 94.3919 71.7966 94.2967 72.0782C93.493 74.5043 91.4363 75.7516 89.0795 75.7516C86.6051 75.7516 84.6612 74.5616 83.8591 72.0718C83.7924 71.8666 77.7907 50.97 77.7907 50.97C77.7812 50.9318 77.778 50.892 77.778 50.8523C77.778 50.5627 78.0114 50.3289 78.3005 50.3273H83.1381C83.3874 50.3273 83.6018 50.5055 83.6495 50.7505L88.5697 68.9759C88.638 69.3434 88.738 69.4834 89.0429 69.4834C89.3479 69.4834 89.4495 69.3482 89.5162 68.9759L94.4316 50.7552C94.4793 50.5102 94.6937 50.3336 94.943 50.332L99.7536 50.3273Z" fill="#F71963"/>
</svg>
